999
dxfrw 0.6.3
  0
SECTION
  2
HEADER
  9
$ACADVER
  1
AC1021
  9
$DWGCODEPAGE
  3
ANSI_1252
  9
$INSBASE
 10
0
 20
0
 30
0
  9
$EXTMIN
 10
6042415.918432112
 20
2130989.12
 30
0
  9
$EXTMAX
 10
6043505.024
 20
2135913.511279904
 30
0
  9
$LIMMIN
 10
0
 20
0
  9
$LIMMAX
 10
420
 20
297
  9
$ORTHOMODE
 70
    0
  9
$REGENMODE
 70
    1
  9
$FILLMODE
 70
    1
  9
$QTEXTMODE
 70
    0
  9
$MIRRTEXT
 70
    0
  9
$LTSCALE
 40
1
  9
$ATTMODE
 70
    0
  9
$TEXTSIZE
 40
2.5
  9
$TRACEWID
 40
15.68
  9
$TEXTSTYLE
  7
STANDARD
  9
$CLAYER
  8
150
  9
$CELTYPE
  6
BYLAYER
  9
$CECOLOR
 62
  256
  9
$CELTSCALE
 40
1
  9
$DISPSILH
 70
    0
  9
$DIMSCALE
 40
2.5
  9
$DIMASZ
 40
2.5
  9
$DIMEXO
 40
0.625
  9
$DIMDLI
 40
3.75
  9
$DIMRND
 40
0
  9
$DIMDLE
 40
0
  9
$DIMEXE
 40
1.25
  9
$DIMTP
 40
0
  9
$DIMTM
 40
0
  9
$DIMTXT
 40
2.5
  9
$DIMCEN
 40
2.5
  9
$DIMTSZ
 40
0
  9
$DIMTOL
 70
    0
  9
$DIMLIM
 70
    0
  9
$DIMTIH
 70
    0
  9
$DIMTOH
 70
    0
  9
$DIMSE1
 70
    0
  9
$DIMSE2
 70
    0
  9
$DIMTAD
 70
    1
  9
$DIMZIN
 70
    8
  9
$DIMBLK
  1

  9
$DIMASO
 70
    1
  9
$DIMSHO
 70
    1
  9
$DIMPOST
  1

  9
$DIMAPOST
  1

  9
$DIMALT
 70
    0
  9
$DIMALTD
 70
    3
  9
$DIMALTF
 40
0.03937
  9
$DIMLFAC
 40
1
  9
$DIMTOFL
 70
    1
  9
$DIMTVP
 40
0
  9
$DIMTIX
 70
    0
  9
$DIMSOXD
 70
    0
  9
$DIMSAH
 70
    0
  9
$DIMBLK1
  1

  9
$DIMBLK2
  1

  9
$DIMSTYLE
  2
Standard
  9
$DIMCLRD
 70
    0
  9
$DIMCLRE
 70
    0
  9
$DIMCLRT
 70
    0
  9
$DIMTFAC
 40
1
  9
$DIMGAP
 40
0.625
  9
$DIMJUST
 70
    0
  9
$DIMSD1
 70
    0
  9
$DIMSD2
 70
    0
  9
$DIMTOLJ
 70
    0
  9
$DIMTZIN
 70
    8
  9
$DIMALTZ
 70
    0
  9
$DIMALTTZ
 70
    0
  9
$DIMUPT
 70
    0
  9
$DIMDEC
 70
    4
  9
$DIMTDEC
 70
    2
  9
$DIMALTU
 70
    2
  9
$DIMALTTD
 70
    3
  9
$DIMTXSTY
  7
STANDARD
  9
$DIMAUNIT
 70
    0
  9
$DIMADEC
 70
    0
  9
$DIMALTRND
 40
0
  9
$DIMAZIN
 70
    0
  9
$DIMDSEP
 70
   44
  9
$DIMATFIT
 70
    3
  9
$DIMFRAC
 70
    0
  9
$DIMLDRBLK
  1
STANDARD
  9
$DIMLUNIT
 70
    2
  9
$DIMLWD
 70
   -2
  9
$DIMLWE
 70
   -2
  9
$DIMTMOVE
 70
    0
  9
$DIMFXL
 40
1
  9
$DIMFXLON
 70
    0
  9
$DIMJOGANG
 40
0.7854
  9
$DIMTFILL
 70
    0
  9
$DIMTFILLCLR
 70
    0
  9
$DIMARCSYM
 70
    0
  9
$DIMLTYPE
  6

  9
$DIMLTEX1
  6

  9
$DIMLTEX2
  6

  9
$LUNITS
 70
    2
  9
$LUPREC
 70
    4
  9
$SKETCHINC
 40
1
  9
$FILLETRAD
 40
0
  9
$AUNITS
 70
    0
  9
$AUPREC
 70
    2
  9
$MENU
  1
.
  9
$ELEVATION
 40
0
  9
$PELEVATION
 40
0
  9
$THICKNESS
 40
0
  9
$LIMCHECK
 70
    0
  9
$CHAMFERA
 40
0
  9
$CHAMFERB
 40
0
  9
$CHAMFERC
 40
0
  9
$CHAMFERD
 40
0
  9
$SKPOLY
 70
    0
  9
$USRTIMER
 70
    1
  9
$ANGBASE
 50
0
  9
$ANGDIR
 70
    0
  9
$PDMODE
 70
   34
  9
$PDSIZE
 40
0
  9
$PLINEWID
 40
0
  9
$SPLFRAME
 70
    0
  9
$SPLINETYPE
 70
    2
  9
$SPLINESEGS
 70
    8
  9
$HANDSEED
  5
20000
  9
$SURFTAB1
 70
    6
  9
$SURFTAB2
 70
    6
  9
$SURFTYPE
 70
    6
  9
$SURFU
 70
    6
  9
$SURFV
 70
    6
  9
$UCSBASE
  2

  9
$UCSNAME
  2

  9
$UCSORG
 10
0
 20
0
 30
0
  9
$UCSXDIR
 10
1
 20
0
 30
0
  9
$UCSYDIR
 10
0
 20
1
 30
0
  9
$UCSORTHOREF
  2

  9
$UCSORTHOVIEW
 70
    0
  9
$UCSORGTOP
 10
0
 20
0
 30
0
  9
$UCSORGBOTTOM
 10
0
 20
0
 30
0
  9
$UCSORGLEFT
 10
0
 20
0
 30
0
  9
$UCSORGRIGHT
 10
0
 20
0
 30
0
  9
$UCSORGFRONT
 10
0
 20
0
 30
0
  9
$UCSORGBACK
 10
0
 20
0
 30
0
  9
$PUCSBASE
  2

  9
$PUCSNAME
  2

  9
$PUCSORG
 10
0
 20
0
 30
0
  9
$PUCSXDIR
 10
1
 20
0
 30
0
  9
$PUCSYDIR
 10
0
 20
1
 30
0
  9
$PUCSORTHOREF
  2

  9
$PUCSORTHOVIEW
 70
    0
  9
$PUCSORGTOP
 10
0
 20
0
 30
0
  9
$PUCSORGBOTTOM
 10
0
 20
0
 30
0
  9
$PUCSORGLEFT
 10
0
 20
0
 30
0
  9
$PUCSORGRIGHT
 10
0
 20
0
 30
0
  9
$PUCSORGFRONT
 10
0
 20
0
 30
0
  9
$PUCSORGBACK
 10
0
 20
0
 30
0
  9
$USERI1
 70
    0
  9
$USERI2
 70
    0
  9
$USERI3
 70
    0
  9
$USERI4
 70
    0
  9
$USERI5
 70
    0
  9
$USERR1
 40
0
  9
$USERR2
 40
0
  9
$USERR3
 40
0
  9
$USERR4
 40
0
  9
$USERR5
 40
0
  9
$WORLDVIEW
 70
    1
  9
$SHADEDGE
 70
    3
  9
$SHADEDIF
 70
   70
  9
$TILEMODE
 70
    1
  9
$MAXACTVP
 70
   64
  9
$PINSBASE
 10
0
 20
0
 30
0
  9
$PLIMCHECK
 70
    0
  9
$PEXTMIN
 10
0
 20
0
 30
0
  9
$PEXTMAX
 10
0
 20
0
 30
0
  9
$GRIDMODE
 70
    0
  9
$SNAPSTYLE
 70
    0
  9
$PLIMMIN
 10
0
 20
0
  9
$PLIMMAX
 10
210
 20
297
  9
$UNITMODE
 70
    0
  9
$VISRETAIN
 70
    1
  9
$PLINEGEN
 70
    0
  9
$PSLTSCALE
 70
    1
  9
$TREEDEPTH
 70
 3020
  9
$CMLSTYLE
  2
Standard
  9
$CMLJUST
 70
    0
  9
$CMLSCALE
 40
20
  9
$PROXYGRAPHICS
 70
    1
  9
$MEASUREMENT
 70
    1
  9
$CELWEIGHT
370
   -1
  9
$ENDCAPS
280
    0
  9
$JOINSTYLE
280
    0
  9
$LWDISPLAY
290
    0
  9
$INSUNITS
 70
    4
  9
$HYPERLINKBASE
  1

  9
$STYLESHEET
  1

  9
$XEDIT
290
    1
  9
$CEPSNTYPE
380
    0
  9
$PSTYLEMODE
290
    1
  9
$EXTNAMES
290
    1
  9
$PSVPSCALE
 40
1
  9
$OLESTARTUP
290
    0
  9
$SORTENTS
280
  127
  9
$INDEXCTL
280
    0
  9
$HIDETEXT
280
    1
  9
$XCLIPFRAME
290
    0
  9
$HALOGAP
280
    0
  9
$OBSCOLOR
 70
  257
  9
$OBSLTYPE
280
    0
  9
$INTERSECTIONDISPLAY
280
    0
  9
$INTERSECTIONCOLOR
 70
  257
  9
$DIMASSOC
280
    1
  9
$PROJECTNAME
  1

  9
$CAMERADISPLAY
290
    0
  9
$LENSLENGTH
 40
50
  9
$CAMERAHEIGHT
 40
0
  9
$STEPSPERSEC
 40
2
  9
$STEPSIZE
 40
50
  9
$3DDWFPREC
 40
2
  9
$PSOLWIDTH
 40
5
  9
$PSOLHEIGHT
 40
80
  9
$LOFTANG1
 40
1.570796326794897
  9
$LOFTANG2
 40
1.570796326794897
  9
$LOFTMAG1
 40
0
  9
$LOFTMAG2
 40
0
  9
$LOFTPARAM
 70
    7
  9
$LOFTNORMALS
280
    1
  9
$LATITUDE
 40
1
  9
$LONGITUDE
 40
1
  9
$NORTHDIRECTION
 40
0
  9
$TIMEZONE
 70
-8000
  9
$LIGHTGLYPHDISPLAY
280
    1
  9
$TILEMODELIGHTSYNCH
280
    1
  9
$SOLIDHIST
280
    1
  9
$SHOWHIST
280
    1
  9
$DWFFRAME
280
    2
  9
$DGNFRAME
280
    0
  9
$REALWORLDSCALE
290
    1
  9
$INTERFERECOLOR
 62
    1
  9
$CSHADOW
280
    0
  9
$SHADOWPLANELOCATION
 40
0
  0
ENDSEC
  0
SECTION
  2
CLASSES
  0
ENDSEC
  0
SECTION
  2
TABLES
  0
TABLE
  2
VPORT
  5
8
330
0
100
AcDbSymbolTable
 70
    1
  0
VPORT
  5
31
330
2
100
AcDbSymbolTableRecord
100
AcDbViewportTableRecord
  2
*ACTIVE
 70
    0
 10
0
 20
0
 11
1
 21
1
 12
3021562.020988341
 22
1066700.872762644
 13
0
 23
0
 14
10
 24
10
 15
10
 25
10
 16
0
 26
0
 36
1
 17
0
 27
0
 37
0
 40
422.4150867564383
 41
1.287898089171974
 42
50
 43
0
 44
0
 50
0
 51
0
 71
    0
 72
  100
 73
    1
 74
    3
 75
    0
 76
    0
 77
    0
 78
    0
281
    0
 65
    1
110
0
120
0
130
0
111
1
121
0
131
0
112
0
122
1
132
0
 79
    0
146
0
348
10020
 60
    7
 61
    5
292
1
282
    1
141
0
142
0
 63
  250
421
3358443
  0
ENDTAB
  0
TABLE
  2
LTYPE
  5
5
330
0
100
AcDbSymbolTable
 70
    4
  0
LTYPE
  5
14
330
5
100
AcDbSymbolTableRecord
100
AcDbLinetypeTableRecord
  2
ByBlock
 70
    0
  3

 72
   65
 73
    0
 40
0
  0
LTYPE
  5
15
330
5
100
AcDbSymbolTableRecord
100
AcDbLinetypeTableRecord
  2
ByLayer
 70
    0
  3

 72
   65
 73
    0
 40
0
  0
LTYPE
  5
16
330
5
100
AcDbSymbolTableRecord
100
AcDbLinetypeTableRecord
  2
Continuous
 70
    0
  3
Solid line
 72
   65
 73
    0
 40
0
  0
LTYPE
  5
32
330
5
100
AcDbSymbolTableRecord
100
AcDbLinetypeTableRecord
  2
DOT
 70
    0
  3
Dot . . . . . . . . . . . . . . . . . . . . . .
 72
   65
 73
    2
 40
6.35
 49
0
 74
    0
 49
-6.35
 74
    0
  0
LTYPE
  5
33
330
5
100
AcDbSymbolTableRecord
100
AcDbLinetypeTableRecord
  2
DOTTINY
 70
    0
  3
Dot (.15x) .....................................
 72
   65
 73
    2
 40
0.9525
 49
0
 74
    0
 49
-0.9525
 74
    0
  0
LTYPE
  5
34
330
5
100
AcDbSymbolTableRecord
100
AcDbLinetypeTableRecord
  2
DOT2
 70
    0
  3
Dot (.5x) .....................................
 72
   65
 73
    2
 40
3.175
 49
0
 74
    0
 49
-3.175
 74
    0
  0
LTYPE
  5
35
330
5
100
AcDbSymbolTableRecord
100
AcDbLinetypeTableRecord
  2
DOTX2
 70
    0
  3
Dot (2x) .  .  .  .  .  .  .  .  .  .  .  .  .
 72
   65
 73
    2
 40
12.7
 49
0
 74
    0
 49
-12.7
 74
    0
  0
LTYPE
  5
36
330
5
100
AcDbSymbolTableRecord
100
AcDbLinetypeTableRecord
  2
DASHED
 70
    0
  3
Dashed _ _ _ _ _ _ _ _ _ _ _ _ _ _ _ _ _
 72
   65
 73
    2
 40
19.05
 49
12.7
 74
    0
 49
-6.35
 74
    0
  0
LTYPE
  5
37
330
5
100
AcDbSymbolTableRecord
100
AcDbLinetypeTableRecord
  2
DASHEDTINY
 70
    0
  3
Dashed (.15x) _ _ _ _ _ _ _ _ _ _ _ _ _ _ _ _ _
 72
   65
 73
    2
 40
2.8575
 49
1.905
 74
    0
 49
-0.9525
 74
    0
  0
LTYPE
  5
38
330
5
100
AcDbSymbolTableRecord
100
AcDbLinetypeTableRecord
  2
DASHED2
 70
    0
  3
Dashed (.5x) _ _ _ _ _ _ _ _ _ _ _ _ _ _ _ _ _
 72
   65
 73
    2
 40
9.524999999999999
 49
6.35
 74
    0
 49
-3.175
 74
    0
  0
LTYPE
  5
39
330
5
100
AcDbSymbolTableRecord
100
AcDbLinetypeTableRecord
  2
DASHEDX2
 70
    0
  3
Dashed (2x) ____  ____  ____  ____  ____  ___
 72
   65
 73
    2
 40
38.09999999999999
 49
25.4
 74
    0
 49
-12.7
 74
    0
  0
LTYPE
  5
3A
330
5
100
AcDbSymbolTableRecord
100
AcDbLinetypeTableRecord
  2
DASHDOT
 70
    0
  3
Dash dot __ . __ . __ . __ . __ . __ . __ . __
 72
   65
 73
    4
 40
25.4
 49
12.7
 74
    0
 49
-6.35
 74
    0
 49
0
 74
    0
 49
-6.35
 74
    0
  0
LTYPE
  5
3B
330
5
100
AcDbSymbolTableRecord
100
AcDbLinetypeTableRecord
  2
DASHDOTTINY
 70
    0
  3
Dash dot (.15x) _._._._._._._._._._._._._._._.
 72
   65
 73
    4
 40
3.81
 49
1.905
 74
    0
 49
-0.9525
 74
    0
 49
0
 74
    0
 49
-0.9525
 74
    0
  0
LTYPE
  5
3C
330
5
100
AcDbSymbolTableRecord
100
AcDbLinetypeTableRecord
  2
DASHDOT2
 70
    0
  3
Dash dot (.5x) _._._._._._._._._._._._._._._.
 72
   65
 73
    4
 40
12.7
 49
6.35
 74
    0
 49
-3.175
 74
    0
 49
0
 74
    0
 49
-3.175
 74
    0
  0
LTYPE
  5
3D
330
5
100
AcDbSymbolTableRecord
100
AcDbLinetypeTableRecord
  2
DASHDOTX2
 70
    0
  3
Dash dot (2x) ____  .  ____  .  ____  .  ___
 72
   65
 73
    4
 40
50.8
 49
25.4
 74
    0
 49
-12.7
 74
    0
 49
0
 74
    0
 49
-12.7
 74
    0
  0
LTYPE
  5
3E
330
5
100
AcDbSymbolTableRecord
100
AcDbLinetypeTableRecord
  2
DIVIDE
 70
    0
  3
Divide ____ . . ____ . . ____ . . ____ . . ____
 72
   65
 73
    6
 40
31.75
 49
12.7
 74
    0
 49
-6.35
 74
    0
 49
0
 74
    0
 49
-6.35
 74
    0
 49
0
 74
    0
 49
-6.35
 74
    0
  0
LTYPE
  5
3F
330
5
100
AcDbSymbolTableRecord
100
AcDbLinetypeTableRecord
  2
DIVIDETINY
 70
    0
  3
Divide (.15x) __..__..__..__..__..__..__..__.._
 72
   65
 73
    6
 40
4.7625
 49
1.905
 74
    0
 49
-0.9525
 74
    0
 49
0
 74
    0
 49
-0.9525
 74
    0
 49
0
 74
    0
 49
-0.9525
 74
    0
  0
LTYPE
  5
40
330
5
100
AcDbSymbolTableRecord
100
AcDbLinetypeTableRecord
  2
DIVIDE2
 70
    0
  3
Divide (.5x) __..__..__..__..__..__..__..__.._
 72
   65
 73
    6
 40
15.875
 49
6.35
 74
    0
 49
-3.175
 74
    0
 49
0
 74
    0
 49
-3.175
 74
    0
 49
0
 74
    0
 49
-3.175
 74
    0
  0
LTYPE
  5
41
330
5
100
AcDbSymbolTableRecord
100
AcDbLinetypeTableRecord
  2
DIVIDEX2
 70
    0
  3
Divide (2x) ________  .  .  ________  .  .  _
 72
   65
 73
    6
 40
63.5
 49
25.4
 74
    0
 49
-12.7
 74
    0
 49
0
 74
    0
 49
-12.7
 74
    0
 49
0
 74
    0
 49
-12.7
 74
    0
  0
LTYPE
  5
42
330
5
100
AcDbSymbolTableRecord
100
AcDbLinetypeTableRecord
  2
BORDER
 70
    0
  3
Border __ __ . __ __ . __ __ . __ __ . __ __ .
 72
   65
 73
    6
 40
44.45
 49
12.7
 74
    0
 49
-6.35
 74
    0
 49
12.7
 74
    0
 49
-6.35
 74
    0
 49
0
 74
    0
 49
-6.35
 74
    0
  0
LTYPE
  5
43
330
5
100
AcDbSymbolTableRecord
100
AcDbLinetypeTableRecord
  2
BORDERTINY
 70
    0
  3
Border (.15x) __.__.__.__.__.__.__.__.__.__.__.
 72
   65
 73
    6
 40
6.6675
 49
1.905
 74
    0
 49
-0.9525
 74
    0
 49
1.905
 74
    0
 49
-0.9525
 74
    0
 49
0
 74
    0
 49
-0.9525
 74
    0
  0
LTYPE
  5
44
330
5
100
AcDbSymbolTableRecord
100
AcDbLinetypeTableRecord
  2
BORDER2
 70
    0
  3
Border (.5x) __.__.__.__.__.__.__.__.__.__.__.
 72
   65
 73
    6
 40
22.225
 49
6.35
 74
    0
 49
-3.175
 74
    0
 49
6.35
 74
    0
 49
-3.175
 74
    0
 49
0
 74
    0
 49
-3.175
 74
    0
  0
LTYPE
  5
45
330
5
100
AcDbSymbolTableRecord
100
AcDbLinetypeTableRecord
  2
BORDERX2
 70
    0
  3
Border (2x) ____  ____  .  ____  ____  .  ___
 72
   65
 73
    6
 40
88.89999999999999
 49
25.4
 74
    0
 49
-12.7
 74
    0
 49
25.4
 74
    0
 49
-12.7
 74
    0
 49
0
 74
    0
 49
-12.7
 74
    0
  0
LTYPE
  5
46
330
5
100
AcDbSymbolTableRecord
100
AcDbLinetypeTableRecord
  2
CENTER
 70
    0
  3
Center ____ _ ____ _ ____ _ ____ _ ____ _ ____
 72
   65
 73
    4
 40
50.8
 49
31.75
 74
    0
 49
-6.35
 74
    0
 49
6.35
 74
    0
 49
-6.35
 74
    0
  0
LTYPE
  5
47
330
5
100
AcDbSymbolTableRecord
100
AcDbLinetypeTableRecord
  2
CENTERTINY
 70
    0
  3
Center (.15x) ___ _ ___ _ ___ _ ___ _ ___ _ ___
 72
   65
 73
    4
 40
7.619999999999999
 49
4.7625
 74
    0
 49
-0.9525
 74
    0
 49
0.9525
 74
    0
 49
-0.9525
 74
    0
  0
LTYPE
  5
48
330
5
100
AcDbSymbolTableRecord
100
AcDbLinetypeTableRecord
  2
CENTER2
 70
    0
  3
Center (.5x) ___ _ ___ _ ___ _ ___ _ ___ _ ___
 72
   65
 73
    4
 40
28.575
 49
19.05
 74
    0
 49
-3.175
 74
    0
 49
3.175
 74
    0
 49
-3.175
 74
    0
  0
LTYPE
  5
49
330
5
100
AcDbSymbolTableRecord
100
AcDbLinetypeTableRecord
  2
CENTERX2
 70
    0
  3
Center (2x) ________  __  ________  __  _____
 72
   65
 73
    4
 40
101.6
 49
63.5
 74
    0
 49
-12.7
 74
    0
 49
12.7
 74
    0
 49
-12.7
 74
    0
  0
ENDTAB
  0
TABLE
  2
LAYER
  5
2
330
0
100
AcDbSymbolTable
 70
    1
  0
LAYER
  5
10
330
2
100
AcDbSymbolTableRecord
100
AcDbLayerTableRecord
  2
0
 70
    0
 62
    1
  6
CONTINUOUS
370
   -3
390
F
  0
LAYER
  5
4A
330
2
100
AcDbSymbolTableRecord
100
AcDbLayerTableRecord
  2
150
 70
    0
 62
    3
  6
CONTINUOUS
370
   -3
390
F
  0
LAYER
  5
4B
330
2
100
AcDbSymbolTableRecord
100
AcDbLayerTableRecord
  2
154
 70
    0
 62
    3
  6
CONTINUOUS
370
   -3
390
F
  0
ENDTAB
  0
TABLE
  2
STYLE
  5
3
330
0
100
AcDbSymbolTable
 70
    3
  0
STYLE
  5
4C
330
2
100
AcDbSymbolTableRecord
100
AcDbTextStyleTableRecord
  2
standard
 70
    0
 40
0
 41
1
 50
0
 71
    0
 42
1
  3
standard
  4

  0
ENDTAB
  0
TABLE
  2
VIEW
  5
6
330
0
100
AcDbSymbolTable
 70
    0
  0
ENDTAB
  0
TABLE
  2
UCS
  5
7
330
0
100
AcDbSymbolTable
 70
    0
  0
ENDTAB
  0
TABLE
  2
APPID
  5
9
330
0
100
AcDbSymbolTable
 70
    1
  0
APPID
  5
12
330
9
100
AcDbSymbolTableRecord
100
AcDbRegAppTableRecord
  2
ACAD
 70
    0
  0
APPID
  5
4D
330
9
100
AcDbSymbolTableRecord
100
AcDbRegAppTableRecord
  2
LibreCad
 70
    0
  0
ENDTAB
  0
TABLE
  2
DIMSTYLE
  5
A
330
0
100
AcDbSymbolTable
 70
    1
100
AcDbDimStyleTable
 71
    1
  0
DIMSTYLE
105
4E
330
A
100
AcDbSymbolTableRecord
100
AcDbDimStyleTableRecord
  2
Standard
 70
    0
 40
2.5
 41
2.5
 42
0.625
 43
0.38
 44
1.25
 45
0
 46
0
 47
0
 48
0
 49
1
140
2.5
141
0.09
142
0
143
25.4
144
1
145
0
146
1
147
0.625
148
0
 71
    0
 72
    0
 73
    0
 74
    1
 75
    0
 76
    0
 77
    0
 78
    8
 79
    0
170
    0
171
    2
172
    0
173
    0
174
    0
175
    0
176
    0
177
    0
178
    0
179
    0
271
    4
272
    4
273
    2
274
    2
275
    0
276
    0
277
    2
278
   44
279
    0
280
    0
281
    0
282
    0
283
    1
284
    0
285
    0
286
    0
288
    0
289
    3
340
STANDARD
341

371
   -2
372
   -2
  0
ENDTAB
  0
TABLE
  2
BLOCK_RECORD
  5
1
330
0
100
AcDbSymbolTable
 70
    2
  0
BLOCK_RECORD
  5
1F
330
1
100
AcDbSymbolTableRecord
100
AcDbBlockTableRecord
  2
*Model_Space
 70
    0
280
    1
281
    0
  0
BLOCK_RECORD
  5
1E
330
1
100
AcDbSymbolTableRecord
100
AcDbBlockTableRecord
  2
*Paper_Space
 70
    0
280
    1
281
    0
  0
BLOCK_RECORD
  5
4F
330
1
100
AcDbSymbolTableRecord
100
AcDbBlockTableRecord
  2
BOX
 70
    0
280
    1
281
    0
  0
BLOCK_RECORD
  5
52
330
1
100
AcDbSymbolTableRecord
100
AcDbBlockTableRecord
  2
SIGN1
 70
    0
280
    1
281
    0
  0
BLOCK_RECORD
  5
55
330
1
100
AcDbSymbolTableRecord
100
AcDbBlockTableRecord
  2
POST
 70
    0
280
    1
281
    0
  0
BLOCK_RECORD
  5
58
330
1
100
AcDbSymbolTableRecord
100
AcDbBlockTableRecord
  2
ELT
 70
    0
280
    1
281
    0
  0
BLOCK_RECORD
  5
5B
330
1
100
AcDbSymbolTableRecord
100
AcDbBlockTableRecord
  2
POLE
 70
    0
280
    1
281
    0
  0
BLOCK_RECORD
  5
5E
330
1
100
AcDbSymbolTableRecord
100
AcDbBlockTableRecord
  2
SIGN2
 70
    0
280
    1
281
    0
  0
BLOCK_RECORD
  5
61
330
1
100
AcDbSymbolTableRecord
100
AcDbBlockTableRecord
  2
TSIG
 70
    0
280
    1
281
    0
  0
BLOCK_RECORD
  5
64
330
1
100
AcDbSymbolTableRecord
100
AcDbBlockTableRecord
  2
TSP
 70
    0
280
    1
281
    0
  0
BLOCK_RECORD
  5
67
330
1
100
AcDbSymbolTableRecord
100
AcDbBlockTableRecord
  2
ELTDBL
 70
    0
280
    1
281
    0
  0
BLOCK_RECORD
  5
6A
330
1
100
AcDbSymbolTableRecord
100
AcDbBlockTableRecord
  2
SIGN3
 70
    0
280
    1
281
    0
  0
BLOCK_RECORD
  5
6D
330
1
100
AcDbSymbolTableRecord
100
AcDbBlockTableRecord
  2
LTP
 70
    0
280
    1
281
    0
  0
BLOCK_RECORD
  5
70
330
1
100
AcDbSymbolTableRecord
100
AcDbBlockTableRecord
  2
CB
 70
    0
280
    1
281
    0
  0
BLOCK_RECORD
  5
73
330
1
100
AcDbSymbolTableRecord
100
AcDbBlockTableRecord
  2
EPOLE
 70
    0
280
    1
281
    0
  0
BLOCK_RECORD
  5
76
330
1
100
AcDbSymbolTableRecord
100
AcDbBlockTableRecord
  2
SPOT
 70
    0
280
    1
281
    0
  0
ENDTAB
  0
ENDSEC
  0
SECTION
  2
BLOCKS
  0
BLOCK
  5
20
330
1F
100
AcDbEntity
  8
0
100
AcDbBlockBegin
  2
*Model_Space
 70
    0
 10
0
 20
0
 30
0
  3
*Model_Space
  1

  0
ENDBLK
  5
21
330
1F
100
AcDbEntity
  8
0
100
AcDbBlockEnd
  0
BLOCK
  5
1C
330
1B
100
AcDbEntity
  8
0
100
AcDbBlockBegin
  2
*Paper_Space
 70
    0
 10
0
 20
0
 30
0
  3
*Paper_Space
  1

  0
ENDBLK
  5
1D
330
1F
100
AcDbEntity
  8
0
100
AcDbBlockEnd
  0
BLOCK
  5
50
330
4F
100
AcDbEntity
  8
0
100
AcDbBlockBegin
  2
BOX
 70
    0
 10
0
 20
0
  3
BOX
  1

  0
LWPOLYLINE
  5
79
100
AcDbEntity
  8
0
  6
ByLayer
 62
  256
370
   -1
100
AcDbPolyline
 90
    5
 70
    0
 43
0
 10
0.02999999999999936
 20
0.03000000000000114
 10
-0.02999999999999936
 20
0.03000000000000114
 10
-0.02999999999999936
 20
-0.02999999999999936
 10
0.02999999999999936
 20
-0.02999999999999936
 10
0.02999999999999936
 20
0.03000000000000114
  0
ENDBLK
  5
51
330
4F
100
AcDbEntity
  8
0
100
AcDbBlockEnd
  0
BLOCK
  5
53
330
52
100
AcDbEntity
  8
0
100
AcDbBlockBegin
  2
SIGN1
 70
    0
 10
0
 20
0
  3
SIGN1
  1

  0
LINE
  5
7A
100
AcDbEntity
  8
0
  6
ByLayer
 62
  256
370
   -1
100
AcDbLine
 10
-0.07580000000000142
 20
4.440892098500626e-16
 11
0.07039999999999891
 21
4.440892098500626e-16
  0
LWPOLYLINE
  5
7B
100
AcDbEntity
  8
0
  6
ByLayer
 62
  256
370
   -1
100
AcDbPolyline
 90
    2
 70
    1
 43
0
 10
-0.008175000000000487
 20
1.951780836141053e-18
 42
0.9999999999999999
 10
0.006824999999999193
 20
1.20551169291065e-18
 42
0.9999999999999999
  0
ENDBLK
  5
54
330
52
100
AcDbEntity
  8
0
100
AcDbBlockEnd
  0
BLOCK
  5
56
330
55
100
AcDbEntity
  8
0
100
AcDbBlockBegin
  2
POST
 70
    0
 10
0
 20
0
  3
POST
  1

  0
LWPOLYLINE
  5
7C
100
AcDbEntity
  8
0
  6
ByLayer
 62
  256
370
   -1
100
AcDbPolyline
 90
    2
 70
    1
 43
0
 10
-0.009999999999999787
 20
2.60237444818807e-18
 42
0.9999999999999999
 10
0.009999999999999787
 20
1.607348923880867e-18
 42
0.9999999999999999
  0
ENDBLK
  5
57
330
55
100
AcDbEntity
  8
0
100
AcDbBlockEnd
  0
BLOCK
  5
59
330
58
100
AcDbEntity
  8
0
100
AcDbBlockBegin
  2
ELT
 70
    0
 10
0
 20
0
  3
ELT
  1

  0
LWPOLYLINE
  5
7D
100
AcDbEntity
  8
0
  6
ByLayer
 62
  256
370
   -1
100
AcDbPolyline
 90
    2
 70
    0
 43
0
 10
1.77635683940025e-15
 20
0.04999999999999982
 10
1.77635683940025e-15
 20
-0.05000000000000027
  0
LWPOLYLINE
  5
7E
100
AcDbEntity
  8
0
  6
ByLayer
 62
  256
370
   -1
100
AcDbPolyline
 90
    2
 70
    1
 43
0
 10
-0.01249999999999929
 20
4.473421779102975e-16
 42
0.9999999999999999
 10
0.01249999999999929
 20
4.460983960049135e-16
 42
0.9999999999999999
  0
LWPOLYLINE
  5
7F
100
AcDbEntity
  8
0
  6
ByLayer
 62
  256
370
   -1
100
AcDbPolyline
 90
    2
 70
    0
 43
0
 10
0
 20
4.440892098500626e-16
 10
0.1200000000000099
 20
4.440892098500626e-16
  0
CIRCLE
  5
80
100
AcDbEntity
  8
0
  6
ByLayer
 62
  256
370
   -1
100
AcDbCircle
 10
0.1450000000000102
 20
4.440892098500626e-16
 40
0.025
  0
LWPOLYLINE
  5
81
100
AcDbEntity
  8
0
  6
ByLayer
 62
  256
370
   -1
100
AcDbPolyline
 90
    2
 70
    0
 43
0
 10
0.1450000000000102
 20
0.0250000000000834
 10
0.1450000000000102
 20
0.06000000000000005
  0
LWPOLYLINE
  5
82
100
AcDbEntity
  8
0
  6
ByLayer
 62
  256
370
   -1
100
AcDbPolyline
 90
    2
 70
    0
 43
0
 10
0.1700000000000941
 20
4.440892098500626e-16
 10
0.2050000000000107
 20
4.440892098500626e-16
  0
LWPOLYLINE
  5
83
100
AcDbEntity
  8
0
  6
ByLayer
 62
  256
370
   -1
100
AcDbPolyline
 90
    2
 70
    0
 43
0
 10
0.1450000000000102
 20
-0.02500000000008251
 10
0.1450000000000102
 20
-0.05999999999999917
  0
ENDBLK
  5
5A
330
58
100
AcDbEntity
  8
0
100
AcDbBlockEnd
  0
BLOCK
  5
5C
330
5B
100
AcDbEntity
  8
0
100
AcDbBlockBegin
  2
POLE
 70
    0
 10
0
 20
0
  3
POLE
  1

  0
LWPOLYLINE
  5
84
100
AcDbEntity
  8
0
  6
ByLayer
 62
  256
370
   -1
100
AcDbPolyline
 90
    2
 70
    1
 43
0
 10
-0.01500000000000001
 20
3.903561672282192e-18
 42
0.9999999999999999
 10
0.01500000000000001
 20
2.411023385821354e-18
 42
0.9999999999999999
  0
ENDBLK
  5
5D
330
5B
100
AcDbEntity
  8
0
100
AcDbBlockEnd
  0
BLOCK
  5
5F
330
5E
100
AcDbEntity
  8
0
100
AcDbBlockBegin
  2
SIGN2
 70
    0
 10
0
 20
0
  3
SIGN2
  1

  0
LWPOLYLINE
  5
85
100
AcDbEntity
  8
0
  6
ByLayer
 62
  256
370
   -1
100
AcDbPolyline
 90
    2
 70
    0
 43
0
 10
-0.1500000000000012
 20
4.440892098500626e-16
 10
0.1499999999999986
 20
4.440892098500626e-16
  0
LWPOLYLINE
  5
86
100
AcDbEntity
  8
0
  6
ByLayer
 62
  256
370
   -1
100
AcDbPolyline
 90
    2
 70
    1
 43
0
 10
-0.1037500000000007
 20
4.466915842982507e-16
 42
0.9999999999999999
 10
-0.0837500000000011
 20
4.456965587739435e-16
 42
0.9999999999999999
  0
LWPOLYLINE
  5
87
100
AcDbEntity
  8
0
  6
ByLayer
 62
  256
370
   -1
100
AcDbPolyline
 90
    2
 70
    1
 43
0
 10
0.08374999999999977
 20
4.466915842982506e-16
 42
0.9999999999999999
 10
0.1037499999999993
 20
4.456965587739435e-16
 42
0.9999999999999999
  0
ENDBLK
  5
60
330
5E
100
AcDbEntity
  8
0
100
AcDbBlockEnd
  0
BLOCK
  5
62
330
61
100
AcDbEntity
  8
0
100
AcDbBlockBegin
  2
TSIG
 70
    0
 10
0
 20
0
  3
TSIG
  1

  0
LWPOLYLINE
  5
88
100
AcDbEntity
  8
0
  6
ByLayer
 62
  256
370
   -1
100
AcDbPolyline
 90
    2
 70
    0
 43
0
 10
0.2050000000000001
 20
1.77635683940025e-15
 10
0.2286396103067911
 20
0.06363961030679022
  0
LWPOLYLINE
  5
89
100
AcDbEntity
  8
0
  6
ByLayer
 62
  256
370
   -1
100
AcDbPolyline
 90
    2
 70
    0
 43
0
 10
0.1213603896932103
 20
0.06363961030679022
 10
0.1450000000000014
 20
1.77635683940025e-15
  0
CIRCLE
  5
8A
100
AcDbEntity
  8
0
  6
ByLayer
 62
  256
370
   -1
100
AcDbCircle
 10
0.1750000000000007
 20
1.77635683940025e-15
 40
0.03
  0
LWPOLYLINE
  5
8B
100
AcDbEntity
  8
0
  6
ByLayer
 62
  256
370
   -1
100
AcDbPolyline
 90
    2
 70
    0
 43
0
 10
0.2286396103067911
 20
0.06363961030679022
 10
0.1213603896932103
 20
0.06363961030679022
  0
LWPOLYLINE
  5
8C
100
AcDbEntity
  8
0
  6
ByLayer
 62
  256
370
   -1
100
AcDbPolyline
 90
    2
 70
    1
 43
0
 10
-0.01249999999999929
 20
8.914313877603599e-16
 42
0.9999999999999999
 10
0.01249999999999929
 20
8.901876058549761e-16
 42
0.9999999999999999
  0
LWPOLYLINE
  5
8D
100
AcDbEntity
  8
0
  6
ByLayer
 62
  256
370
   -1
100
AcDbPolyline
 90
    2
 70
    0
 43
0
 10
0
 20
8.881784197001252e-16
 10
0.1450000000000369
 20
8.881784197001252e-16
  0
ENDBLK
  5
63
330
61
100
AcDbEntity
  8
0
100
AcDbBlockEnd
  0
BLOCK
  5
65
330
64
100
AcDbEntity
  8
0
100
AcDbBlockBegin
  2
TSP
 70
    0
 10
0
 20
0
  3
TSP
  1

  0
LWPOLYLINE
  5
8E
100
AcDbEntity
  8
0
  6
ByLayer
 62
  256
370
   -1
100
AcDbPolyline
 90
    2
 70
    0
 43
0
 10
0
 20
-0.03000000000000025
 10
0.06363961030678844
 20
-0.05363961030678954
  0
LWPOLYLINE
  5
8F
100
AcDbEntity
  8
0
  6
ByLayer
 62
  256
370
   -1
100
AcDbPolyline
 90
    2
 70
    0
 43
0
 10
0.06363961030678844
 20
0.05363961030678954
 10
0
 20
0.03000000000000025
  0
CIRCLE
  5
90
100
AcDbEntity
  8
0
  6
ByLayer
 62
  256
370
   -1
100
AcDbCircle
 10
0
 20
0
 40
0.03
  0
LWPOLYLINE
  5
91
100
AcDbEntity
  8
0
  6
ByLayer
 62
  256
370
   -1
100
AcDbPolyline
 90
    2
 70
    0
 43
0
 10
0.06363961030678844
 20
-0.05363961030678954
 10
0.06363961030678844
 20
0.05363961030678954
  0
ENDBLK
  5
66
330
64
100
AcDbEntity
  8
0
100
AcDbBlockEnd
  0
BLOCK
  5
68
330
67
100
AcDbEntity
  8
0
100
AcDbBlockBegin
  2
ELTDBL
 70
    0
 10
0
 20
0
  3
ELTDBL
  1

  0
LWPOLYLINE
  5
92
100
AcDbEntity
  8
0
  6
ByLayer
 62
  256
370
   -1
100
AcDbPolyline
 90
    2
 70
    0
 43
0
 10
0
 20
4.440892098500626e-16
 10
0.1200000000000099
 20
0
  0
LWPOLYLINE
  5
93
100
AcDbEntity
  8
0
  6
ByLayer
 62
  256
370
   -1
100
AcDbPolyline
 90
    2
 70
    0
 43
0
 10
0
 20
4.440892098500626e-16
 10
-0.1200000000000081
 20
8.881784197001252e-16
  0
CIRCLE
  5
94
100
AcDbEntity
  8
0
  6
ByLayer
 62
  256
370
   -1
100
AcDbCircle
 10
-0.1450000000000085
 20
4.440892098500626e-16
 40
0.025
  0
CIRCLE
  5
95
100
AcDbEntity
  8
0
  6
ByLayer
 62
  256
370
   -1
100
AcDbCircle
 10
0.1450000000000102
 20
4.440892098500626e-16
 40
0.025
  0
LWPOLYLINE
  5
96
100
AcDbEntity
  8
0
  6
ByLayer
 62
  256
370
   -1
100
AcDbPolyline
 90
    2
 70
    0
 43
0
 10
-0.1450000000000085
 20
-0.02500000000008251
 10
-0.1450000000000085
 20
-0.05999999999999917
  0
LWPOLYLINE
  5
97
100
AcDbEntity
  8
0
  6
ByLayer
 62
  256
370
   -1
100
AcDbPolyline
 90
    2
 70
    0
 43
0
 10
-0.1199999999999246
 20
4.440892098500626e-16
 10
-0.08500000000000796
 20
4.440892098500626e-16
  0
LWPOLYLINE
  5
98
100
AcDbEntity
  8
0
  6
ByLayer
 62
  256
370
   -1
100
AcDbPolyline
 90
    2
 70
    0
 43
0
 10
-0.1450000000000085
 20
0.0250000000000834
 10
-0.1450000000000085
 20
0.06000000000000005
  0
LWPOLYLINE
  5
99
100
AcDbEntity
  8
0
  6
ByLayer
 62
  256
370
   -1
100
AcDbPolyline
 90
    2
 70
    0
 43
0
 10
0.08500000000000973
 20
4.440892098500626e-16
 10
0.1199999999999264
 20
4.440892098500626e-16
  0
LWPOLYLINE
  5
9A
100
AcDbEntity
  8
0
  6
ByLayer
 62
  256
370
   -1
100
AcDbPolyline
 90
    2
 70
    0
 43
0
 10
0.1450000000000102
 20
-0.02500000000008251
 10
0.1450000000000102
 20
-0.05999999999999917
  0
LWPOLYLINE
  5
9B
100
AcDbEntity
  8
0
  6
ByLayer
 62
  256
370
   -1
100
AcDbPolyline
 90
    2
 70
    0
 43
0
 10
0.1700000000000941
 20
4.440892098500626e-16
 10
0.2050000000000107
 20
4.440892098500626e-16
  0
LWPOLYLINE
  5
9C
100
AcDbEntity
  8
0
  6
ByLayer
 62
  256
370
   -1
100
AcDbPolyline
 90
    2
 70
    0
 43
0
 10
0.1450000000000102
 20
0.0250000000000834
 10
0.1450000000000102
 20
0.06000000000000005
  0
LWPOLYLINE
  5
9D
100
AcDbEntity
  8
0
  6
ByLayer
 62
  256
370
   -1
100
AcDbPolyline
 90
    2
 70
    1
 43
0
 10
-0.01249999999999929
 20
4.473421779102975e-16
 42
0.9999999999999999
 10
0.01249999999999929
 20
4.460983960049135e-16
 42
0.9999999999999999
  0
LWPOLYLINE
  5
9E
100
AcDbEntity
  8
0
  6
ByLayer
 62
  256
370
   -1
100
AcDbPolyline
 90
    2
 70
    0
 43
0
 10
-0.205000000000009
 20
4.440892098500626e-16
 10
-0.1700000000000923
 20
4.440892098500626e-16
  0
ENDBLK
  5
69
330
67
100
AcDbEntity
  8
0
100
AcDbBlockEnd
  0
BLOCK
  5
6B
330
6A
100
AcDbEntity
  8
0
100
AcDbBlockBegin
  2
SIGN3
 70
    0
 10
0
 20
0
  3
SIGN3
  1

  0
LWPOLYLINE
  5
9F
100
AcDbEntity
  8
0
  6
ByLayer
 62
  256
370
   -1
100
AcDbPolyline
 90
    2
 70
    0
 43
0
 10
0
 20
0.04999999999999982
 10
0
 20
-0.04999999999999982
  0
LWPOLYLINE
  5
A0
100
AcDbEntity
  8
0
  6
ByLayer
 62
  256
370
   -1
100
AcDbPolyline
 90
    2
 70
    0
 43
0
 10
-0.04999999999999982
 20
0
 10
0.05000000000000027
 20
0
  0
LWPOLYLINE
  5
A1
100
AcDbEntity
  8
0
  6
ByLayer
 62
  256
370
   -1
100
AcDbPolyline
 90
    2
 70
    1
 43
0
 10
0.05874999999999986
 20
8.907807941483133e-16
 42
0.9999999999999999
 10
0.07874999999999943
 20
8.897857686240063e-16
 42
0.9999999999999999
  0
LWPOLYLINE
  5
A2
100
AcDbEntity
  8
0
  6
ByLayer
 62
  256
370
   -1
100
AcDbPolyline
 90
    2
 70
    1
 43
0
 10
1.775247003238523e-15
 20
0.07875000000000121
 42
0.9999999999999999
 10
1.772510683046678e-15
 20
0.05875000000000163
 42
0.9999999999999999
  0
LWPOLYLINE
  5
A3
100
AcDbEntity
  8
0
  6
ByLayer
 62
  256
370
   -1
100
AcDbPolyline
 90
    2
 70
    1
 43
0
 10
-0.07875000000000076
 20
8.907807941483133e-16
 42
0.9999999999999999
 10
-0.05875000000000119
 20
8.897857686240063e-16
 42
0.9999999999999999
  0
LWPOLYLINE
  5
A4
100
AcDbEntity
  8
0
  6
ByLayer
 62
  256
370
   -1
100
AcDbPolyline
 90
    2
 70
    1
 43
0
 10
1.775247003238523e-15
 20
-0.05874999999999808
 42
0.9999999999999999
 10
1.772510683046678e-15
 20
-0.07874999999999766
 42
0.9999999999999999
  0
ENDBLK
  5
6C
330
6A
100
AcDbEntity
  8
0
100
AcDbBlockEnd
  0
BLOCK
  5
6E
330
6D
100
AcDbEntity
  8
0
100
AcDbBlockBegin
  2
LTP
 70
    0
 10
0
 20
0
  3
LTP
  1

  0
LWPOLYLINE
  5
A5
100
AcDbEntity
  8
0
  6
ByLayer
 62
  256
370
   -1
100
AcDbPolyline
 90
    2
 70
    0
 43
0
 10
-0.0600000000000005
 20
0
 10
-0.02500000000008384
 20
0
  0
LWPOLYLINE
  5
A6
100
AcDbEntity
  8
0
  6
ByLayer
 62
  256
370
   -1
100
AcDbPolyline
 90
    2
 70
    1
 43
0
 10
-0.01249999999999929
 20
3.252968060234973e-18
 42
0.9999999999999999
 10
0.01249999999999929
 20
2.009186154851013e-18
 42
0.9999999999999999
  0
LWPOLYLINE
  5
A7
100
AcDbEntity
  8
0
  6
ByLayer
 62
  256
370
   -1
100
AcDbPolyline
 90
    2
 70
    0
 43
0
 10
0.02500000000008384
 20
0
 10
0.0600000000000005
 20
0
  0
LWPOLYLINE
  5
A8
100
AcDbEntity
  8
0
  6
ByLayer
 62
  256
370
   -1
100
AcDbPolyline
 90
    2
 70
    0
 43
0
 10
0
 20
-0.02500000000008296
 10
0
 20
-0.05999999999999961
  0
LWPOLYLINE
  5
A9
100
AcDbEntity
  8
0
  6
ByLayer
 62
  256
370
   -1
100
AcDbPolyline
 90
    2
 70
    0
 43
0
 10
0
 20
0.02500000000008296
 10
0
 20
0.05999999999999961
  0
ENDBLK
  5
6F
330
6D
100
AcDbEntity
  8
0
100
AcDbBlockEnd
  0
BLOCK
  5
71
330
70
100
AcDbEntity
  8
0
100
AcDbBlockBegin
  2
CB
 70
    0
 10
0
 20
0
  3
CB
  1

  0
LWPOLYLINE
  5
AA
100
AcDbEntity
  8
0
  6
ByLayer
 62
  256
370
   -1
100
AcDbPolyline
 90
    2
 70
    0
 43
0
 10
0.05000000000000071
 20
-0.009374999999998579
 10
-0.05000000000000071
 20
-0.009374999999998579
  0
LWPOLYLINE
  5
AB
100
AcDbEntity
  8
0
  6
ByLayer
 62
  256
370
   -1
100
AcDbPolyline
 90
    2
 70
    0
 43
0
 10
-0.05000000000000071
 20
0.01250000000000107
 10
0.05000000000000071
 20
0.01250000000000107
  0
LWPOLYLINE
  5
AC
100
AcDbEntity
  8
0
  6
ByLayer
 62
  256
370
   -1
100
AcDbPolyline
 90
    5
 70
    0
 43
0
 10
-0.05000000000000249
 20
-0.03125000000000178
 10
0.04999999999999893
 20
-0.03125000000000178
 10
0.05000000000000071
 20
0.03437500000000071
 10
-0.05000000000000071
 20
0.03437500000000071
 10
-0.05000000000000249
 20
-0.03125000000000178
  0
ENDBLK
  5
72
330
70
100
AcDbEntity
  8
0
100
AcDbBlockEnd
  0
BLOCK
  5
74
330
73
100
AcDbEntity
  8
0
100
AcDbBlockBegin
  2
EPOLE
 70
    0
 10
0
 20
0
  3
EPOLE
  1

  0
LWPOLYLINE
  5
AD
100
AcDbEntity
  8
0
  6
ByLayer
 62
  256
370
   -1
100
AcDbPolyline
 90
    2
 70
    0
 43
0
 10
-0.06
 20
0
 10
0.06
 20
0
  0
LWPOLYLINE
  5
AE
100
AcDbEntity
  8
0
  6
ByLayer
 62
  256
370
   -1
100
AcDbPolyline
 90
    2
 70
    1
 43
0
 10
-0.01500000000000001
 20
3.903561672282192e-18
 42
0.9999999999999999
 10
0.01500000000000001
 20
2.411023385821354e-18
 42
0.9999999999999999
  0
ENDBLK
  5
75
330
73
100
AcDbEntity
  8
0
100
AcDbBlockEnd
  0
BLOCK
  5
77
330
76
100
AcDbEntity
  8
0
100
AcDbBlockBegin
  2
SPOT
 70
    0
 10
0
 20
0
  3
SPOT
  1

  0
TEXT
  5
AF
100
AcDbEntity
  8
0
  6
ByLayer
 62
  256
370
   -1
100
AcDbText
 10
-1.77635683940025e-15
 20
0
 30
0
 40
0.08
  1
x
 50
0
 41
1
 51
0
  7
standard
 71
    0
 72
    4
 11
-1.77635683940025e-15
 21
0
 31
0
210
0
220
0
230
1
100
AcDbText
  0
ENDBLK
  5
78
330
76
100
AcDbEntity
  8
0
100
AcDbBlockEnd
  0
ENDSEC
  0
SECTION
  2
ENTITIES
  0
LWPOLYLINE
  5
B1
100
AcDbEntity
  8
seg001
  6
ByLayer
 62
  256
370
   -1
100
AcDbPolyline
 90
   81
 70
    0
 43
0
 10
1966315.699
 20
571002.996
 10
1966328.881
 20
570988.796
 10
1966340.811
 20
570976.152
 10
1966344.274
 20
570972.452
 10
1966360.763
 20
570956.941
 10
1966367.036
 20
570951.418
 10
1966379.030
 20
570940.646
 10
1966390.984
 20
570930.503
 10
1966403.831
 20
570919.002
 10
1966414.768
 20
570909.703
 10
1966426.179
 20
570899.648
 10
1966439.277
 20
570888.419
 10
1966444.047
 20
570884.097
 10
1966447.055
 20
570881.451
 10
1966465.968
 20
570864.772
 10
1966480.815
 20
570851.873
 10
1966493.034
 20
570840.983
 10
1966505.388
 20
570829.976
 10
1966522.316
 20
570814.874
 10
1966537.041
 20
570801.737
 10
1966547.295
 20
570793.096
 10
1966558.200
 20
570783.830
 10
1966572.270
 20
570771.647
 10
1966584.453
 20
570760.558
 10
1966599.135
 20
570747.866
 10
1966610.967
 20
570737.543
 10
1966625.208
 20
570725.976
 10
1966637.211
 20
570715.271
 10
1966653.021
 20
570701.174
 10
1966665.082
 20
570690.741
 10
1966675.759
 20
570681.100
 10
1966685.430
 20
570672.782
 10
1966697.515
 20
570662.477
 10
1966708.793
 20
570652.586
 10
1966719.763
 20
570642.915
 10
1966736.387
 20
570628.653
 10
1966742.461
 20
570622.962
 10
1966755.171
 20
570612.456
 10
1966770.448
 20
570599.441
 10
1966774.590
 20
570595.396
 10
1966795.176
 20
570578.465
 10
1966803.997
 20
570571.119
 10
1966824.791
 20
570555.833
 10
1966833.517
 20
570549.509
 10
1966851.022
 20
570538.493
 10
1966868.722
 20
570527.350
 10
1966880.462
 20
570520.815
 10
1966889.747
 20
570515.914
 10
1966903.481
 20
570508.885
 10
1966928.283
 20
570497.443
 10
1966946.763
 20
570489.600
 10
1966965.279
 20
570482.053
 10
1966979.309
 20
570476.344
 10
1966992.422
 20
570470.843
 10
1967006.775
 20
570465.408
 10
1967022.649
 20
570459.020
 10
1967039.026
 20
570452.683
 10
1967056.478
 20
570445.861
 10
1967075.675
 20
570438.065
 10
1967093.402
 20
570431.322
 10
1967108.410
 20
570425.583
 10
1967122.480
 20
570419.908
 10
1967138.198
 20
570413.796
 10
1967153.789
 20
570407.926
 10
1967171.614
 20
570401.400
 10
1967191.136
 20
570394.548
 10
1967205.989
 20
570389.431
 10
1967223.917
 20
570383.539
 10
1967239.971
 20
570378.443
 10
1967261.612
 20
570371.670
 10
1967278.037
 20
570366.802
 10
1967288.946
 20
570363.605
 10
1967304.174
 20
570359.441
 10
1967331.762
 20
570351.809
 10
1967360.785
 20
570344.253
 10
1967381.100
 20
570339.120
 10
1967397.437
 20
570334.862
 10
1967417.276
 20
570328.879
 10
1967443.513
 20
570320.305
 10
1967458.723
 20
570314.992
 10
1967472.192
 20
570309.985
  0
LWPOLYLINE
  5
B2
100
AcDbEntity
  8
seg001
  6
ByLayer
 62
  256
370
   -1
100
AcDbPolyline
 90
   17
 70
    0
 43
0
 10
1967213.216
 20
570402.089
 10
1967232.595
 20
570397.179
 10
1967251.130
 20
570392.092
 10
1967272.170
 20
570386.063
 10
1967286.535
 20
570382.750
 10
1967304.506
 20
570377.644
 10
1967323.904
 20
570372.615
 10
1967338.181
 20
570368.902
 10
1967352.613
 20
570365.406
 10
1967377.177
 20
570360.243
 10
1967397.586
 20
570356.528
 10
1967412.204
 20
570353.416
 10
1967426.262
 20
570349.731
 10
1967440.587
 20
570346.198
 10
1967457.934
 20
570341.248
 10
1967471.412
 20
570336.981
 10
1967482.906
 20
570332.192
  0
LWPOLYLINE
  5
B3
100
AcDbEntity
  8
seg001
  6
ByLayer
 62
  256
370
   -1
100
AcDbPolyline
 90
   14
 70
    0
 43
0
 10
1966706.333
 20
570684.255
 10
1966697.765
 20
570694.206
 10
1966688.920
 20
570706.252
 10
1966683.190
 20
570713.412
 10
1966677.862
 20
570719.240
 10
1966665.377
 20
570732.456
 10
1966657.574
 20
570740.417
 10
1966647.123
 20
570750.814
 10
1966637.293
 20
570760.589
 10
1966626.079
 20
570771.930
 10
1966612.906
 20
570785.457
 10
1966601.275
 20
570797.402
 10
1966589.165
 20
570809.369
 10
1966587.364
 20
570811.149
  0
LWPOLYLINE
  5
B4
100
AcDbEntity
  8
seg001
  6
ByLayer
 62
  256
370
   -1
100
AcDbPolyline
 90
   14
 70
    0
 43
0
 10
1966406.840
 20
570947.861
 10
1966399.229
 20
570954.064
 10
1966392.819
 20
570958.273
 10
1966389.350
 20
570961.239
 10
1966381.602
 20
570969.038
 10
1966374.510
 20
570976.180
 10
1966366.621
 20
570984.409
 10
1966364.805
 20
570986.296
 10
1966354.155
 20
570995.449
 10
1966349.641
 20
570999.204
 10
1966341.131
 20
571005.749
 10
1966334.209
 20
571011.101
 10
1966326.982
 20
571016.578
 10
1966320.664
 20
571021.388
  0
LWPOLYLINE
  5
B5
100
AcDbEntity
  8
seg001
  6
ByLayer
 62
  256
370
   -1
100
AcDbPolyline
 90
   137
 70
    0
 43
0
 10
1966323.316
 20
571009.178
 10
1966325.175
 20
571007.129
 10
1966326.254
 20
571005.941
 10
1966328.592
 20
571003.280
 10
1966330.247
 20
571001.439
 10
1966332.109
 20
570999.427
 10
1966333.191
 20
570998.257
 10
1966335.767
 20
570995.608
 10
1966340.104
 20
570991.033
 10
1966343.496
 20
570987.832
 10
1966346.197
 20
570984.824
 10
1966350.799
 20
570980.127
 10
1966353.664
 20
570977.454
 10
1966358.550
 20
570972.781
 10
1966364.439
 20
570967.149
 10
1966370.904
 20
570960.964
 10
1966377.037
 20
570955.731
 10
1966385.108
 20
570948.483
 10
1966388.966
 20
570944.749
 10
1966394.563
 20
570940.153
 10
1966399.153
 20
570936.221
 10
1966404.667
 20
570931.493
 10
1966409.007
 20
570927.775
 10
1966411.921
 20
570925.278
 10
1966419.248
 20
570918.838
 10
1966422.220
 20
570916.366
 10
1966426.804
 20
570912.565
 10
1966430.133
 20
570909.804
 10
1966430.922
 20
570909.148
 10
1966435.488
 20
570904.976
 10
1966440.825
 20
570900.367
 10
1966442.913
 20
570898.657
 10
1966448.945
 20
570893.716
 10
1966454.901
 20
570888.272
 10
1966458.796
 20
570884.709
 10
1966464.855
 20
570879.168
 10
1966470.202
 20
570874.529
 10
1966474.085
 20
570871.390
 10
1966479.330
 20
570866.644
 10
1966483.143
 20
570863.383
 10
1966485.527
 20
570861.343
 10
1966489.432
 20
570857.969
 10
1966495.531
 20
570852.340
 10
1966502.709
 20
570845.707
 10
1966506.729
 20
570842.309
 10
1966510.426
 20
570839.188
 10
1966515.492
 20
570834.500
 10
1966520.225
 20
570830.223
 10
1966528.324
 20
570823.192
 10
1966533.557
 20
570818.668
 10
1966539.678
 20
570813.435
 10
1966542.198
 20
570811.277
 10
1966547.167
 20
570806.778
 10
1966550.599
 20
570803.943
 10
1966554.445
 20
570800.539
 10
1966555.844
 20
570799.295
 10
1966562.800
 20
570793.135
 10
1966567.765
 20
570788.767
 10
1966572.383
 20
570784.705
 10
1966580.018
 20
570777.907
 10
1966583.660
 20
570774.902
 10
1966591.003
 20
570768.614
 10
1966593.899
 20
570765.987
 10
1966600.117
 20
570760.345
 10
1966605.661
 20
570755.730
 10
1966612.644
 20
570749.756
 10
1966616.472
 20
570746.178
 10
1966620.956
 20
570742.474
 10
1966625.040
 20
570739.125
 10
1966628.493
 20
570736.013
 10
1966633.209
 20
570732.017
 10
1966636.955
 20
570728.819
 10
1966638.921
 20
570727.000
 10
1966642.182
 20
570724.193
 10
1966648.485
 20
570718.407
 10
1966655.663
 20
570711.937
 10
1966660.607
 20
570707.685
 10
1966671.467
 20
570698.346
 10
1966682.153
 20
570688.589
 10
1966693.297
 20
570679.183
 10
1966704.312
 20
570669.609
 10
1966709.116
 20
570665.424
 10
1966714.289
 20
570660.776
 10
1966718.766
 20
570656.753
 10
1966724.176
 20
570652.049
 10
1966728.078
 20
570648.755
 10
1966736.295
 20
570641.765
 10
1966742.019
 20
570636.505
 10
1966751.590
 20
570627.708
 10
1966766.364
 20
570615.111
 10
1966777.903
 20
570605.272
 10
1966791.397
 20
570594.540
 10
1966808.600
 20
570580.857
 10
1966821.002
 20
570571.442
 10
1966833.511
 20
570562.450
 10
1966844.831
 20
570554.315
 10
1966869.785
 20
570539.054
 10
1966882.084
 20
570531.535
 10
1966895.968
 20
570524.460
 10
1966901.588
 20
570521.290
 10
1966908.483
 20
570517.992
 10
1966914.146
 20
570514.987
 10
1966922.564
 20
570510.842
 10
1966933.199
 20
570506.465
 10
1966962.432
 20
570493.895
 10
1966976.578
 20
570488.149
 10
1966989.764
 20
570482.785
 10
1967002.639
 20
570477.545
 10
1967019.223
 20
570471.206
 10
1967032.192
 20
570466.112
 10
1967056.884
 20
570456.411
 10
1967083.572
 20
570445.928
 10
1967097.078
 20
570440.588
 10
1967110.858
 20
570435.142
 10
1967123.333
 20
570430.451
 10
1967137.327
 20
570424.879
 10
1967163.808
 20
570414.830
 10
1967177.700
 20
570409.989
 10
1967190.874
 20
570405.256
 10
1967207.641
 20
570399.379
 10
1967233.860
 20
570390.863
 10
1967259.753
 20
570382.451
 10
1967269.844
 20
570379.671
 10
1967284.588
 20
570375.227
 10
1967303.912
 20
570370.064
 10
1967338.458
 20
570360.508
 10
1967351.729
 20
570357.238
 10
1967367.152
 20
570353.172
 10
1967378.743
 20
570350.112
 10
1967397.937
 20
570345.326
 10
1967412.610
 20
570341.105
 10
1967424.646
 20
570337.136
 10
1967438.658
 20
570332.802
 10
1967446.126
 20
570330.531
 10
1967459.887
 20
570325.356
 10
1967472.098
 20
570320.308
 10
1967475.545
 20
570319.086
  0
LWPOLYLINE
  5
B6
100
AcDbEntity
  8
seg001
  6
ByLayer
 62
  256
370
   -1
100
AcDbPolyline
 90
   120
 70
    0
 43
0
 10
1967497.241
 20
570359.326
 10
1967487.484
 20
570357.299
 10
1967480.013
 20
570357.037
 10
1967470.281
 20
570357.210
 10
1967456.995
 20
570358.042
 10
1967450.332
 20
570358.369
 10
1967443.882
 20
570359.292
 10
1967433.799
 20
570360.548
 10
1967427.380
 20
570361.651
 10
1967417.752
 20
570363.523
 10
1967408.769
 20
570364.910
 10
1967397.220
 20
570367.229
 10
1967385.513
 20
570369.424
 10
1967374.659
 20
570371.460
 10
1967364.049
 20
570373.322
 10
1967358.188
 20
570374.273
 10
1967353.268
 20
570375.227
 10
1967347.029
 20
570376.218
 10
1967341.155
 20
570377.608
 10
1967336.102
 20
570378.650
 10
1967331.926
 20
570379.299
 10
1967324.648
 20
570380.829
 10
1967319.326
 20
570382.067
 10
1967306.872
 20
570384.743
 10
1967297.197
 20
570386.950
 10
1967288.562
 20
570389.010
 10
1967280.576
 20
570391.022
 10
1967274.413
 20
570392.460
 10
1967269.064
 20
570393.713
 10
1967264.145
 20
570394.737
 10
1967258.972
 20
570396.127
 10
1967253.559
 20
570397.359
 10
1967246.171
 20
570399.096
 10
1967239.343
 20
570400.519
 10
1967233.625
 20
570401.873
 10
1967227.462
 20
570403.516
 10
1967221.384
 20
570404.838
 10
1967215.779
 20
570406.521
 10
1967208.424
 20
570408.615
 10
1967200.448
 20
570410.584
 10
1967193.126
 20
570412.980
 10
1967185.561
 20
570415.421
 10
1967175.972
 20
570418.058
 10
1967167.535
 20
570421.276
 10
1967157.910
 20
570424.815
 10
1967147.324
 20
570428.814
 10
1967140.122
 20
570431.536
 10
1967131.813
 20
570434.940
 10
1967123.278
 20
570438.150
 10
1967115.603
 20
570440.985
 10
1967106.935
 20
570444.365
 10
1967097.044
 20
570448.443
 10
1967087.022
 20
570452.387
 10
1967076.242
 20
570456.712
 10
1967069.121
 20
570459.068
 10
1967063.434
 20
570461.236
 10
1967057.481
 20
570463.564
 10
1967050.346
 20
570466.627
 10
1967040.641
 20
570470.477
 10
1967031.329
 20
570474.266
 10
1967022.289
 20
570477.722
 10
1967016.492
 20
570480.109
 10
1967008.677
 20
570483.071
 10
1967000.130
 20
570486.513
 10
1966991.693
 20
570489.905
 10
1966982.982
 20
570493.249
 10
1966973.100
 20
570497.406
 10
1966965.572
 20
570500.567
 10
1966956.419
 20
570503.862
 10
1966949.332
 20
570506.864
 10
1966942.547
 20
570509.665
 10
1966935.555
 20
570513.015
 10
1966929.947
 20
570515.216
 10
1966922.196
 20
570518.952
 10
1966914.762
 20
570522.641
 10
1966907.980
 20
570526.164
 10
1966898.043
 20
570531.410
 10
1966890.143
 20
570535.716
 10
1966881.584
 20
570540.325
 10
1966872.788
 20
570545.568
 10
1966864.613
 20
570550.514
 10
1966856.929
 20
570555.278
 10
1966850.290
 20
570559.393
 10
1966844.871
 20
570562.755
 10
1966837.973
 20
570567.663
 10
1966830.314
 20
570573.118
 10
1966826.296
 20
570576.514
 10
1966817.905
 20
570582.665
 10
1966808.871
 20
570589.437
 10
1966800.486
 20
570596.222
 10
1966793.409
 20
570601.989
 10
1966787.852
 20
570606.515
 10
1966782.469
 20
570611.161
 10
1966777.556
 20
570615.403
 10
1966772.554
 20
570619.539
 10
1966767.485
 20
570624.099
 10
1966763.514
 20
570627.861
 10
1966758.576
 20
570632.597
 10
1966754.260
 20
570636.349
 10
1966749.359
 20
570641.424
 10
1966744.433
 20
570646.313
 10
1966740.163
 20
570650.553
 10
1966733.948
 20
570657.094
 10
1966727.822
 20
570663.083
 10
1966721.366
 20
570669.780
 10
1966714.907
 20
570675.973
 10
1966706.333
 20
570684.255
 10
1966696.775
 20
570694.206
 10
1966687.055
 20
570704.664
 10
1966679.035
 20
570713.503
 10
1966669.413
 20
570722.879
 10
1966661.583
 20
570730.953
 10
1966653.518
 20
570739.113
 10
1966641.987
 20
570750.786
 10
1966639.948
 20
570752.792
 10
1966633.840
 20
570758.982
 10
1966621.230
 20
570771.845
 10
1966612.043
 20
570781.215
 10
1966602.000
 20
570791.456
 10
1966584.611
 20
570808.643
  0
LWPOLYLINE
  5
B7
100
AcDbEntity
  8
seg001
  6
ByLayer
 62
  256
370
   -1
100
AcDbPolyline
 90
   21
 70
    0
 43
0
 10
1966756.833
 20
570628.330
 10
1966744.839
 20
570639.626
 10
1966740.919
 20
570643.780
 10
1966730.973
 20
570654.521
 10
1966724.448
 20
570661.245
 10
1966718.358
 20
570667.219
 10
1966712.880
 20
570672.748
 10
1966707.656
 20
570678.174
 10
1966702.764
 20
570683.255
 10
1966694.312
 20
570692.189
 10
1966685.665
 20
570701.330
 10
1966678.426
 20
570708.983
 10
1966669.160
 20
570718.526
 10
1966661.470
 20
570726.332
 10
1966649.711
 20
570737.912
 10
1966641.801
 20
570746.031
 10
1966633.065
 20
570754.557
 10
1966622.282
 20
570765.612
 10
1966608.051
 20
570780.200
 10
1966596.288
 20
570791.950
 10
1966581.902
 20
570806.217
  0
LWPOLYLINE
  5
B8
100
AcDbEntity
  8
seg001
  6
ByLayer
 62
  256
370
   -1
100
AcDbPolyline
 90
   105
 70
    0
 43
0
 10
1966320.722
 20
571007.053
 10
1966324.855
 20
571002.393
 10
1966330.555
 20
570996.391
 10
1966335.645
 20
570990.850
 10
1966340.805
 20
570985.671
 10
1966343.801
 20
570982.489
 10
1966351.217
 20
570975.272
 10
1966354.064
 20
570972.501
 10
1966361.778
 20
570965.216
 10
1966370.980
 20
570956.389
 10
1966373.693
 20
570954.015
 10
1966383.425
 20
570945.490
 10
1966387.226
 20
570941.710
 10
1966394.011
 20
570936.099
 10
1966400.741
 20
570930.179
 10
1966405.227
 20
570926.510
 10
1966408.650
 20
570923.709
 10
1966416.673
 20
570917.149
 10
1966422.760
 20
570911.523
 10
1966427.405
 20
570907.722
 10
1966432.940
 20
570902.833
 10
1966438.347
 20
570898.172
 10
1966445.531
 20
570891.979
 10
1966446.561
 20
570891.247
 10
1966454.483
 20
570884.304
 10
1966471.464
 20
570869.424
 10
1966478.462
 20
570862.605
 10
1966489.102
 20
570853.355
 10
1966493.022
 20
570850.008
 10
1966496.722
 20
570846.936
 10
1966503.894
 20
570840.468
 10
1966508.878
 20
570836.112
 10
1966514.309
 20
570831.046
 10
1966525.322
 20
570821.558
 10
1966539.373
 20
570809.064
 10
1966550.340
 20
570799.311
 10
1966559.185
 20
570791.919
 10
1966569.259
 20
570783.068
 10
1966581.646
 20
570772.183
 10
1966593.880
 20
570761.430
 10
1966604.893
 20
570752.070
 10
1966615.094
 20
570743.133
 10
1966624.083
 20
570735.397
 10
1966633.474
 20
570727.314
 10
1966642.941
 20
570718.834
 10
1966659.245
 20
570704.755
 10
1966669.507
 20
570695.447
 10
1966684.302
 20
570682.630
 10
1966691.447
 20
570676.799
 10
1966703.642
 20
570665.848
 10
1966714.557
 20
570656.027
 10
1966726.359
 20
570645.414
 10
1966735.640
 20
570637.614
 10
1966746.326
 20
570628.232
 10
1966758.582
 20
570617.506
 10
1966773.816
 20
570604.376
 10
1966787.142
 20
570593.229
 10
1966796.054
 20
570586.039
 10
1966810.892
 20
570574.600
 10
1966821.465
 20
570566.632
 10
1966833.502
 20
570558.208
 10
1966846.328
 20
570549.225
 10
1966868.344
 20
570535.921
 10
1966881.121
 20
570528.157
 10
1966894.767
 20
570520.973
 10
1966908.266
 20
570514.344
 10
1966911.805
 20
570512.521
 10
1966934.436
 20
570501.878
 10
1966950.115
 20
570495.181
 10
1966963.706
 20
570489.713
 10
1966977.569
 20
570484.288
 10
1966990.989
 20
570478.807
 10
1967004.483
 20
570473.382
 10
1967018.522
 20
570468.036
 10
1967032.289
 20
570462.650
 10
1967047.548
 20
570456.471
 10
1967060.803
 20
570451.342
 10
1967075.489
 20
570445.124
 10
1967089.744
 20
570439.884
 10
1967101.260
 20
570435.410
 10
1967113.967
 20
570430.439
 10
1967128.576
 20
570424.833
 10
1967142.779
 20
570419.137
 10
1967162.832
 20
570411.684
 10
1967184.385
 20
570403.799
 10
1967203.136
 20
570397.276
 10
1967215.465
 20
570393.149
 10
1967231.357
 20
570387.913
 10
1967247.244
 20
570383.512
 10
1967262.605
 20
570378.257
 10
1967274.654
 20
570374.700
 10
1967286.490
 20
570371.332
 10
1967304.262
 20
570366.098
 10
1967328.287
 20
570359.664
 10
1967342.411
 20
570356.015
 10
1967361.108
 20
570351.291
 10
1967376.296
 20
570347.231
 10
1967383.279
 20
570345.582
 10
1967401.192
 20
570340.772
 10
1967415.179
 20
570336.770
 10
1967430.319
 20
570332.016
 10
1967437.094
 20
570329.650
 10
1967443.239
 20
570327.715
 10
1967460.713
 20
570321.088
 10
1967473.957
 20
570315.761
  0
LWPOLYLINE
  5
B9
100
AcDbEntity
  8
seg001
  6
ByLayer
 62
  256
370
   -1
100
AcDbPolyline
 90
   78
 70
    0
 43
0
 10
1966323.642
 20
571023.832
 10
1966336.032
 20
571014.262
 10
1966347.617
 20
571005.428
 10
1966355.097
 20
570999.360
 10
1966365.506
 20
570989.945
 10
1966377.820
 20
570977.993
 10
1966390.658
 20
570964.686
 10
1966406.840
 20
570947.861
 10
1966418.879
 20
570935.541
 10
1966435.046
 20
570918.826
 10
1966447.028
 20
570906.311
 10
1966459.704
 20
570893.290
 10
1966466.882
 20
570885.831
 10
1966478.044
 20
570874.160
 10
1966487.508
 20
570864.757
 10
1966494.522
 20
570858.387
 10
1966505.028
 20
570848.847
 10
1966516.053
 20
570838.581
 10
1966529.016
 20
570827.157
 10
1966542.948
 20
570815.148
 10
1966557.195
 20
570802.758
 10
1966572.273
 20
570789.606
 10
1966587.547
 20
570776.277
 10
1966601.988
 20
570763.573
 10
1966621.654
 20
570746.245
 10
1966636.245
 20
570733.693
 10
1966654.511
 20
570717.396
 10
1966673.186
 20
570701.211
 10
1966686.049
 20
570689.909
 10
1966701.377
 20
570676.449
 10
1966713.740
 20
570665.674
 10
1966730.364
 20
570651.406
 10
1966744.839
 20
570638.553
 10
1966756.833
 20
570628.330
 10
1966767.421
 20
570619.302
 10
1966780.656
 20
570607.555
 10
1966789.608
 20
570599.609
 10
1966799.495
 20
570591.787
 10
1966811.892
 20
570582.479
 10
1966823.069
 20
570574.088
 10
1966837.120
 20
570563.859
 10
1966852.918
 20
570553.002
 10
1966871.925
 20
570541.806
 10
1966884.120
 20
570534.695
 10
1966898.132
 20
570527.112
 10
1966906.895
 20
570522.366
 10
1966922.193
 20
570514.981
 10
1966937.896
 20
570507.782
 10
1966963.152
 20
570497.354
 10
1966978.395
 20
570491.261
 10
1966992.857
 20
570485.339
 10
1967009.344
 20
570478.765
 10
1967025.916
 20
570472.620
 10
1967042.235
 20
570465.905
 10
1967058.109
 20
570459.556
 10
1967074.574
 20
570453.186
 10
1967091.728
 20
570446.142
 10
1967108.389
 20
570440.064
 10
1967126.896
 20
570432.761
 10
1967143.157
 20
570426.290
 10
1967161.214
 20
570419.551
 10
1967178.804
 20
570413.297
 10
1967195.479
 20
570407.731
 10
1967213.216
 20
570402.089
 10
1967230.839
 20
570395.999
 10
1967244.089
 20
570391.982
 10
1967269.643
 20
570383.798
 10
1967285.749
 20
570378.540
 10
1967308.344
 20
570372.270
 10
1967330.963
 20
570366.595
 10
1967348.596
 20
570361.810
 10
1967367.188
 20
570356.713
 10
1967391.237
 20
570350.813
 10
1967413.055
 20
570344.695
 10
1967436.207
 20
570337.645
 10
1967447.302
 20
570333.780
 10
1967466.660
 20
570326.413
 10
1967477.316
 20
570321.921
  0
LWPOLYLINE
  5
B10
100
AcDbEntity
  8
seg001
  6
ByLayer
 62
  256
370
   -1
100
AcDbPolyline
 90
   82
 70
    0
 43
0
 10
1966318.097
 20
571005.218
 10
1966321.072
 20
571001.890
 10
1966328.253
 20
570994.160
 10
1966338.120
 20
570983.647
 10
1966347.504
 20
570973.656
 10
1966359.142
 20
570962.948
 10
1966370.669
 20
570952.460
 10
1966382.221
 20
570942.170
 10
1966393.508
 20
570932.359
 10
1966404.536
 20
570922.950
 10
1966415.609
 20
570913.400
 10
1966426.512
 20
570903.839
 10
1966437.420
 20
570894.649
 10
1966448.287
 20
570885.054
 10
1966470.290
 20
570865.906
 10
1966492.437
 20
570846.356
 10
1966507.284
 20
570833.250
 10
1966524.045
 20
570818.022
 10
1966539.400
 20
570804.794
 10
1966549.413
 20
570796.177
 10
1966561.828
 20
570785.281
 10
1966579.320
 20
570769.873
 10
1966590.006
 20
570760.461
 10
1966601.083
 20
570750.875
 10
1966615.186
 20
570738.808
 10
1966627.396
 20
570728.317
 10
1966636.190
 20
570720.209
 10
1966655.779
 20
570703.204
 10
1966666.785
 20
570693.588
 10
1966678.270
 20
570683.380
 10
1966702.743
 20
570662.184
 10
1966715.029
 20
570651.059
 10
1966726.621
 20
570640.565
 10
1966734.244
 20
570634.673
 10
1966749.822
 20
570621.015
 10
1966756.650
 20
570615.339
 10
1966772.548
 20
570601.818
 10
1966777.087
 20
570597.518
 10
1966791.668
 20
570585.170
 10
1966806.795
 20
570573.064
 10
1966818.884
 20
570564.258
 10
1966830.640
 20
570555.940
 10
1966844.639
 20
570546.768
 10
1966859.431
 20
570537.079
 10
1966869.322
 20
570530.599
 10
1966880.142
 20
570524.984
 10
1966893.490
 20
570518.062
 10
1966907.486
 20
570510.762
 10
1966934.202
 20
570498.229
 10
1966952.487
 20
570490.591
 10
1966966.843
 20
570484.742
 10
1966980.611
 20
570479.237
 10
1966994.351
 20
570473.763
 10
1967009.972
 20
570467.542
 10
1967022.935
 20
570462.379
 10
1967034.655
 20
570457.709
 10
1967047.789
 20
570452.479
 10
1967060.895
 20
570447.257
 10
1967072.867
 20
570442.487
 10
1967085.937
 20
570437.281
 10
1967102.272
 20
570431.478
 10
1967116.957
 20
570425.220
 10
1967129.533
 20
570420.804
 10
1967142.539
 20
570415.857
 10
1967152.981
 20
570411.885
 10
1967173.573
 20
570404.052
 10
1967193.303
 20
570397.234
 10
1967208.720
 20
570391.994
 10
1967225.472
 20
570386.410
 10
1967240.126
 20
570381.802
 10
1967254.559
 20
570377.324
 10
1967269.104
 20
570373.005
 10
1967282.009
 20
570369.027
 10
1967296.005
 20
570365.007
 10
1967320.914
 20
570358.158
 10
1967338.339
 20
570353.739
 10
1967364.561
 20
570346.740
 10
1967381.362
 20
570342.626
 10
1967399.269
 20
570337.916
 10
1967416.984
 20
570332.677
 10
1967436.287
 20
570326.550
 10
1967472.893
 20
570312.999
  0
SECTION
  2
OBJECTS
  0
DICTIONARY
  5
C
330
0
100
AcDbDictionary
281
    1
  3
ACAD_GROUP
350
D
  0
DICTIONARY
  5
D
330
C
100
AcDbDictionary
281
    1
  0
ENDSEC
  0
EOF
