  0
SECTION
  2
HEADER
  9
$ACADVER
  1
AC1032
  9
$ACADMAINTVER
 90
       55
  9
$DWGCODEPAGE
  3
ANSI_1252
  9
$REQUIREDVERSIONS
160
                 0
  9
$INSBASE
 10
0.0
 20
0.0
 30
0.0
  9
$EXTMIN
 10
6448774.683538127
 20
1869110.236468583
 30
0.0
  9
$EXTMAX
 10
6456929.143411968
 20
1876804.772963593
 30
0.0
  9
$LIMMIN
 10
-0.1
 20
10.65
  9
$LIMMAX
 10
6.125
 20
13.275
  9
$ORTHOMODE
 70
     0
  9
$REGENMODE
 70
     1
  9
$FILLMODE
 70
     1
  9
$QTEXTMODE
 70
     0
  9
$MIRRTEXT
 70
     1
  9
$LTSCALE
 40
100.0
  9
$ATTMODE
 70
     1
  9
$TEXTSIZE
 40
8.0
  9
$TRACEWID
 40
0.05
  9
$TEXTSTYLE
  7
STANDARD
  9
$CLAYER
  8
0
  9
$CELTYPE
  6
BYLAYER
  9
$CECOLOR
 62
   256
  9
$CELTSCALE
 40
1.0
  9
$DISPSILH
 70
     0
  9
$DIMSCALE
 40
1.0
  9
$DIMASZ
 40
0.18
  9
$DIMEXO
 40
0.0625
  9
$DIMDLI
 40
0.38
  9
$DIMRND
 40
0.0
  9
$DIMDLE
 40
0.0
  9
$DIMEXE
 40
0.18
  9
$DIMTP
 40
0.0
  9
$DIMTM
 40
0.0
  9
$DIMTXT
 40
0.18
  9
$DIMCEN
 40
0.09
  9
$DIMTSZ
 40
0.0
  9
$DIMTOL
 70
     0
  9
$DIMLIM
 70
     0
  9
$DIMTIH
 70
     1
  9
$DIMTOH
 70
     1
  9
$DIMSE1
 70
     0
  9
$DIMSE2
 70
     0
  9
$DIMTAD
 70
     0
  9
$DIMZIN
 70
     0
  9
$DIMBLK
  1

  9
$DIMASO
 70
     1
  9
$DIMSHO
 70
     0
  9
$DIMPOST
  1

  9
$DIMAPOST
  1

  9
$DIMALT
 70
     0
  9
$DIMALTD
 70
     2
  9
$DIMALTF
 40
25.4
  9
$DIMLFAC
 40
1.0
  9
$DIMTOFL
 70
     0
  9
$DIMTVP
 40
0.0
  9
$DIMTIX
 70
     0
  9
$DIMSOXD
 70
     0
  9
$DIMSAH
 70
     0
  9
$DIMBLK1
  1

  9
$DIMBLK2
  1

  9
$DIMSTYLE
  2
STANDARD
  9
$DIMCLRD
 70
     0
  9
$DIMCLRE
 70
     0
  9
$DIMCLRT
 70
     0
  9
$DIMTFAC
 40
1.0
  9
$DIMGAP
 40
0.09
  9
$DIMJUST
 70
     0
  9
$DIMSD1
 70
     0
  9
$DIMSD2
 70
     0
  9
$DIMTOLJ
 70
     1
  9
$DIMTZIN
 70
     0
  9
$DIMALTZ
 70
     0
  9
$DIMALTTZ
 70
     0
  9
$DIMUPT
 70
     0
  9
$DIMDEC
 70
     4
  9
$DIMTDEC
 70
     4
  9
$DIMALTU
 70
     2
  9
$DIMALTTD
 70
     2
  9
$DIMTXSTY
  7
STANDARD
  9
$DIMAUNIT
 70
     0
  9
$DIMADEC
 70
     0
  9
$DIMALTRND
 40
0.0
  9
$DIMAZIN
 70
     0
  9
$DIMDSEP
 70
    46
  9
$DIMATFIT
 70
     3
  9
$DIMFRAC
 70
     0
  9
$DIMLDRBLK
  1

  9
$DIMLUNIT
 70
     2
  9
$DIMLWD
 70
    -2
  9
$DIMLWE
 70
    -2
  9
$DIMTMOVE
 70
     0
  9
$DIMFXL
 40
1.0
  9
$DIMFXLON
 70
     0
  9
$DIMJOGANG
 40
0.7853981633974483
  9
$DIMTFILL
 70
     0
  9
$DIMTFILLCLR
 70
     0
  9
$DIMARCSYM
 70
     0
  9
$DIMLTYPE
  6

  9
$DIMLTEX1
  6

  9
$DIMLTEX2
  6

  9
$DIMTXTDIRECTION
 70
     0
  9
$LUNITS
 70
     2
  9
$LUPREC
 70
     2
  9
$SKETCHINC
 40
0.1
  9
$FILLETRAD
 40
0.0
  9
$AUNITS
 70
     0
  9
$AUPREC
 70
     2
  9
$MENU
  1
C:\ACAD13\SUPPORT\ACAD
  9
$ELEVATION
 40
0.0
  9
$PELEVATION
 40
0.0
  9
$THICKNESS
 40
0.0
  9
$LIMCHECK
 70
     0
  9
$CHAMFERA
 40
0.0
  9
$CHAMFERB
 40
0.0
  9
$CHAMFERC
 40
0.0
  9
$CHAMFERD
 40
0.0
  9
$SKPOLY
 70
     0
  9
$TDCREATE
 40
2453563.532916667
  9
$TDUCREATE
 40
2453563.824594584
  9
$TDUPDATE
 40
2458408.785949074
  9
$TDUUPDATE
 40
2458409.077615741
  9
$TDINDWG
 40
4.2070065741
  9
$TDUSRTIMER
 40
4.2070062269
  9
$USRTIMER
 70
     1
  9
$ANGBASE
 50
0.0
  9
$ANGDIR
 70
     0
  9
$PDMODE
 70
     0
  9
$PDSIZE
 40
0.0
  9
$PLINEWID
 40
0.0
  9
$SPLFRAME
 70
     0
  9
$SPLINETYPE
 70
     6
  9
$SPLINESEGS
 70
     8
  9
$HANDSEED
  5
A6
  9
$SURFTAB1
 70
     6
  9
$SURFTAB2
 70
     6
  9
$SURFTYPE
 70
     6
  9
$SURFU
 70
     6
  9
$SURFV
 70
     6
  9
$UCSBASE
  2

  9
$UCSNAME
  2

  9
$UCSORG
 10
0.0
 20
0.0
 30
0.0
  9
$UCSXDIR
 10
1.0
 20
0.0
 30
0.0
  9
$UCSYDIR
 10
0.0
 20
1.0
 30
0.0
  9
$UCSORTHOREF
  2

  9
$UCSORTHOVIEW
 70
     0
  9
$UCSORGTOP
 10
0.0
 20
0.0
 30
0.0
  9
$UCSORGBOTTOM
 10
0.0
 20
0.0
 30
0.0
  9
$UCSORGLEFT
 10
0.0
 20
0.0
 30
0.0
  9
$UCSORGRIGHT
 10
0.0
 20
0.0
 30
0.0
  9
$UCSORGFRONT
 10
0.0
 20
0.0
 30
0.0
  9
$UCSORGBACK
 10
0.0
 20
0.0
 30
0.0
  9
$PUCSBASE
  2

  9
$PUCSNAME
  2

  9
$PUCSORG
 10
0.0
 20
0.0
 30
0.0
  9
$PUCSXDIR
 10
1.0
 20
0.0
 30
0.0
  9
$PUCSYDIR
 10
0.0
 20
1.0
 30
0.0
  9
$PUCSORTHOREF
  2

  9
$PUCSORTHOVIEW
 70
     0
  9
$PUCSORGTOP
 10
0.0
 20
0.0
 30
0.0
  9
$PUCSORGBOTTOM
 10
0.0
 20
0.0
 30
0.0
  9
$PUCSORGLEFT
 10
0.0
 20
0.0
 30
0.0
  9
$PUCSORGRIGHT
 10
0.0
 20
0.0
 30
0.0
  9
$PUCSORGFRONT
 10
0.0
 20
0.0
 30
0.0
  9
$PUCSORGBACK
 10
0.0
 20
0.0
 30
0.0
  9
$USERI1
 70
     0
  9
$USERI2
 70
     0
  9
$USERI3
 70
     0
  9
$USERI4
 70
     0
  9
$USERI5
 70
     0
  9
$USERR1
 40
0.0
  9
$USERR2
 40
0.0
  9
$USERR3
 40
0.0
  9
$USERR4
 40
0.0
  9
$USERR5
 40
0.0
  9
$WORLDVIEW
 70
     1
  9
$SHADEDGE
 70
     3
  9
$SHADEDIF
 70
    70
  9
$TILEMODE
 70
     1
  9
$MAXACTVP
 70
    16
  9
$PINSBASE
 10
0.0
 20
0.0
 30
0.0
  9
$PLIMCHECK
 70
     0
  9
$PEXTMIN
 10
1.000000000000000E+20
 20
1.000000000000000E+20
 30
1.000000000000000E+20
  9
$PEXTMAX
 10
-1.000000000000000E+20
 20
-1.000000000000000E+20
 30
-1.000000000000000E+20
  9
$PLIMMIN
 10
0.0
 20
0.0
  9
$PLIMMAX
 10
12.0
 20
9.0
  9
$UNITMODE
 70
     0
  9
$VISRETAIN
 70
     0
  9
$PLINEGEN
 70
     0
  9
$PSLTSCALE
 70
     0
  9
$TREEDEPTH
 70
  3020
  9
$CMLSTYLE
  2
STANDARD
  9
$CMLJUST
 70
     0
  9
$CMLSCALE
 40
1.0
  9
$PROXYGRAPHICS
 70
     1
  9
$MEASUREMENT
 70
     0
  9
$CELWEIGHT
370
    -1
  9
$ENDCAPS
280
     0
  9
$JOINSTYLE
280
     0
  9
$LWDISPLAY
290
     0
  9
$INSUNITS
 70
     0
  9
$HYPERLINKBASE
  1

  9
$STYLESHEET
  1

  9
$XEDIT
290
     1
  9
$CEPSNTYPE
380
     0
  9
$PSTYLEMODE
290
     1
  9
$FINGERPRINTGUID
  2
{C70F57B7-8426-1342-A8BB-D30A469DA613}
  9
$VERSIONGUID
  2
{9C64A63F-89F0-8940-964B-411E3B733DC3}
  9
$EXTNAMES
290
     1
  9
$PSVPSCALE
 40
0.0
  9
$OLESTARTUP
290
     0
  9
$SORTENTS
280
   127
  9
$INDEXCTL
280
     0
  9
$HIDETEXT
280
     1
  9
$XCLIPFRAME
280
     2
  9
$HALOGAP
280
     0
  9
$OBSCOLOR
 70
   257
  9
$OBSLTYPE
280
     0
  9
$INTERSECTIONDISPLAY
280
     0
  9
$INTERSECTIONCOLOR
 70
   257
  9
$DIMASSOC
280
     1
  9
$PROJECTNAME
  1

  9
$CAMERADISPLAY
290
     0
  9
$LENSLENGTH
 40
50.0
  9
$CAMERAHEIGHT
 40
0.0
  9
$STEPSPERSEC
 40
2.0
  9
$STEPSIZE
 40
6.0
  9
$3DDWFPREC
 40
2.0
  9
$PSOLWIDTH
 40
0.25
  9
$PSOLHEIGHT
 40
4.0
  9
$LOFTANG1
 40
1.570796326794896
  9
$LOFTANG2
 40
1.570796326794896
  9
$LOFTMAG1
 40
0.0
  9
$LOFTMAG2
 40
0.0
  9
$LOFTPARAM
 70
     7
  9
$LOFTNORMALS
280
     1
  9
$LATITUDE
 40
37.795
  9
$LONGITUDE
 40
-122.394
  9
$NORTHDIRECTION
 40
0.0
  9
$TIMEZONE
 70
 -8000
  9
$LIGHTGLYPHDISPLAY
280
     1
  9
$TILEMODELIGHTSYNCH
280
     1
  9
$CMATERIAL
347
37
  9
$SOLIDHIST
280
     0
  9
$SHOWHIST
280
     1
  9
$DWFFRAME
280
     2
  9
$DGNFRAME
280
     0
  9
$REALWORLDSCALE
290
     1
  9
$INTERFERECOLOR
 62
     1
  9
$INTERFEREOBJVS
345
4E
  9
$INTERFEREVPVS
346
4F
  9
$CSHADOW
280
     0
  9
$SHADOWPLANELOCATION
 40
0.0
  0
ENDSEC
  0
SECTION
  2
CLASSES
  0
CLASS
  1
ACDBDICTIONARYWDFLT
  2
AcDbDictionaryWithDefault
  3
ObjectDBX Classes
 90
        0
 91
        1
280
     0
281
     0
  0
CLASS
  1
DICTIONARYVAR
  2
AcDbDictionaryVar
  3
ObjectDBX Classes
 90
        0
 91
        9
280
     0
281
     0
  0
CLASS
  1
RASTERVARIABLES
  2
AcDbRasterVariables
  3
ISM
 90
        0
 91
        0
280
     1
281
     0
  0
CLASS
  1
IMAGEDEF
  2
AcDbRasterImageDef
  3
ISM
 90
        0
 91
        0
280
     1
281
     0
  0
CLASS
  1
IMAGE
  2
AcDbRasterImage
  3
ISM
 90
     2175
 91
        0
280
     1
281
     1
  0
CLASS
  1
IMAGEDEF_REACTOR
  2
AcDbRasterImageDefReactor
  3
ISM
 90
        1
 91
        0
280
     1
281
     0
  0
CLASS
  1
SORTENTSTABLE
  2
AcDbSortentsTable
  3
ObjectDBX Classes
 90
        0
 91
        2
280
     0
281
     0
  0
CLASS
  1
MATERIAL
  2
AcDbMaterial
  3
ObjectDBX Classes
 90
     1153
 91
        3
280
     0
281
     0
  0
CLASS
  1
VISUALSTYLE
  2
AcDbVisualStyle
  3
ObjectDBX Classes
 90
     4095
 91
        3
280
     0
281
     0
  0
CLASS
  1
TABLESTYLE
  2
AcDbTableStyle
  3
ObjectDBX Classes
 90
     4095
 91
        1
280
     0
281
     0
  0
CLASS
  1
SCALE
  2
AcDbScale
  3
ObjectDBX Classes
 90
     1153
 91
       17
280
     0
281
     0
  0
CLASS
  1
MLEADERSTYLE
  2
AcDbMLeaderStyle
  3
ACDB_MLEADERSTYLE_CLASS
 90
     4095
 91
        0
280
     0
281
     0
  0
CLASS
  1
ACDBSECTIONVIEWSTYLE
  2
AcDbSectionViewStyle
  3
ObjectDBX Classes
 90
     1025
 91
        0
280
     0
281
     0
  0
CLASS
  1
ACDBDETAILVIEWSTYLE
  2
AcDbDetailViewStyle
  3
ObjectDBX Classes
 90
     1025
 91
        0
280
     0
281
     0
  0
CLASS
  1
CELLSTYLEMAP
  2
AcDbCellStyleMap
  3
ObjectDBX Classes
 90
     1152
 91
        1
280
     0
281
     0
  0
CLASS
  1
SOLID_BACKGROUND
  2
AcDbSolidBackground
  3
SCENEOE
 90
     4095
 91
        0
280
     0
281
     0
  0
CLASS
  1
NPOCOLLECTION
  2
AcDbImpNonPersistentObjectsCollection
  3
ObjectDBX Classes
 90
     1153
 91
        0
280
     0
281
     0
  0
ENDSEC
  0
SECTION
  2
TABLES
  0
TABLE
  2
VPORT
  5
2B
330
0
100
AcDbSymbolTable
 70
     1
  0
VPORT
  5
2C
330
2B
100
AcDbSymbolTableRecord
100
AcDbViewportTableRecord
  2
*Active
 70
     0
 10
0.0
 20
0.0
 11
1.0
 21
1.0
 12
-5024.754073127872
 22
-3566.177880052061
 13
0.0
 23
0.0
 14
50.0
 24
50.0
 15
0.1
 25
0.1
 16
0.0
 26
0.0
 36
460.6008128745769
 17
6451205.754209517
 27
1873350.579840423
 37
0.0
 40
9807.846423253202
 41
3.020700636942675
 42
50.0
 43
0.0
 44
0.0
 50
0.0
 51
321.0376617965861
 71
     8
 72
   850
 73
     1
 74
     0
 75
     0
 76
     0
 77
     0
 78
     0
281
     0
 65
     1
110
0.0
120
0.0
130
0.0
111
1.0
121
0.0
131
0.0
112
0.0
122
1.0
132
0.0
 79
     0
146
0.0
348
2D
 60
     3
 61
     5
292
     1
282
     1
141
0.0
142
0.0
 63
   250
421
  3355443
1001
ACAD_NAV_VCDISPLAY
1070
     3
  0
ENDTAB
  0
TABLE
  2
LTYPE
  5
26
330
0
100
AcDbSymbolTable
 70
     2
  0
LTYPE
  5
27
330
26
100
AcDbSymbolTableRecord
100
AcDbLinetypeTableRecord
  2
BYBLOCK
 70
     0
  3

 72
    65
 73
     0
 40
0.0
  0
LTYPE
  5
28
330
26
100
AcDbSymbolTableRecord
100
AcDbLinetypeTableRecord
  2
BYLAYER
 70
     0
  3

 72
    65
 73
     0
 40
0.0
  0
LTYPE
  5
16
330
26
100
AcDbSymbolTableRecord
100
AcDbLinetypeTableRecord
  2
CONTINUOUS
 70
     0
  3
Solid line
 72
    65
 73
     0
 40
0.0
  0
LTYPE
  5
67
330
26
100
AcDbSymbolTableRecord
100
AcDbLinetypeTableRecord
  2
D5
 70
     0
  3
-------------------- -------------------- -----
 72
    65
 73
     2
 40
1.05
 49
1.0
 74
     0
 49
-0.05
 74
     0
  0
ENDTAB
  0
TABLE
  2
LAYER
  5
1E
102
{ACAD_XDICTIONARY
360
1F
102
}
330
0
100
AcDbSymbolTable
 70
    13
  0
LAYER
  5
6
102
{ACAD_XDICTIONARY
360
7
102
}
330
1E
100
AcDbSymbolTableRecord
100
AcDbLayerTableRecord
  2
0
 70
     0
 62
     1
  6
CONTINUOUS
370
    -3
390
9
347
D
348
0
  0
LAYER
  5
74
330
1E
100
AcDbSymbolTableRecord
100
AcDbLayerTableRecord
  2
seg001
 70
     0
 62
     1
  6
CONTINUOUS
370
    -3
390
9
347
D
348
0
1001
AcAecLayerStandard
1000

1000

1001
AcCmTransparency
1071
        0
  0
LAYER
  5
72
330
1E
100
AcDbSymbolTableRecord
100
AcDbLayerTableRecord
  2
seg002
 70
     0
 62
     1
  6
CONTINUOUS
370
    -3
390
9
347
D
348
0
1001
AcAecLayerStandard
1000

1000

1001
AcCmTransparency
1071
        0
  0
LAYER
  5
6C
330
1E
100
AcDbSymbolTableRecord
100
AcDbLayerTableRecord
  2
seg003
 70
     0
 62
     1
  6
CONTINUOUS
370
    -3
390
9
347
D
348
0
1001
AcAecLayerStandard
1000

1000

1001
AcCmTransparency
1071
        0
  0
LAYER
  5
6E
330
1E
100
AcDbSymbolTableRecord
100
AcDbLayerTableRecord
  2
seg004
 70
     0
 62
     1
  6
CONTINUOUS
370
    -3
390
9
347
D
348
0
1001
AcAecLayerStandard
1000

1000

1001
AcCmTransparency
1071
        0
  0
LAYER
  5
7C
330
1E
100
AcDbSymbolTableRecord
100
AcDbLayerTableRecord
  2
seg005
 70
     0
 62
     1
  6
CONTINUOUS
370
    -3
390
9
347
D
348
0
1001
AcAecLayerStandard
1000

1000

1001
AcCmTransparency
1071
        0
  0
LAYER
  5
6A
330
1E
100
AcDbSymbolTableRecord
100
AcDbLayerTableRecord
  2
seg006
 70
     0
 62
     1
  6
CONTINUOUS
370
    -3
390
9
347
D
348
0
1001
AcAecLayerStandard
1000

1000

1001
AcCmTransparency
1071
        0
  0
LAYER
  5
66
330
1E
100
AcDbSymbolTableRecord
100
AcDbLayerTableRecord
  2
seg007
 70
     0
 62
     1
  6
D5
370
    -3
390
9
347
D
348
0
1001
AcAecLayerStandard
1000

1000

1001
AcCmTransparency
1071
        0
  0
LAYER
  5
86
330
1E
100
AcDbSymbolTableRecord
100
AcDbLayerTableRecord
  2
seg008
 70
     0
 62
     1
  6
CONTINUOUS
370
    -3
390
9
347
D
348
0
1001
AcAecLayerStandard
1000

1000

1001
AcCmTransparency
1071
        0
  0
LAYER
  5
7E
330
1E
100
AcDbSymbolTableRecord
100
AcDbLayerTableRecord
  2
seg009
 70
     0
 62
     1
  6
CONTINUOUS
370
    -3
390
9
347
D
348
0
1001
AcAecLayerStandard
1000

1000

1001
AcCmTransparency
1071
        0
  0
LAYER
  5
62
330
1E
100
AcDbSymbolTableRecord
100
AcDbLayerTableRecord
  2
seg010
 70
     0
 62
     1
  6
CONTINUOUS
370
    -3
390
9
347
D
348
0
1001
AcAecLayerStandard
1000

1000

1001
AcCmTransparency
1071
        0
  0
LAYER
  5
76
330
1E
100
AcDbSymbolTableRecord
100
AcDbLayerTableRecord
  2
seg011
 70
     0
 62
     1
  6
CONTINUOUS
370
    -3
390
9
347
D
348
0
1001
AcAecLayerStandard
1000

1000

1001
AcCmTransparency
1071
        0
  0
LAYER
  5
79
330
1E
100
AcDbSymbolTableRecord
100
AcDbLayerTableRecord
  2
seg012
 70
     0
 62
     1
  6
D5
370
    -3
390
9
347
D
348
0
1001
AcAecLayerStandard
1000

1000

1001
AcCmTransparency
1071
        0
  0
ENDTAB
  0
TABLE
  2
STYLE
  5
23
330
0
100
AcDbSymbolTable
 70
     1
  0
STYLE
  5
24
330
23
100
AcDbSymbolTableRecord
100
AcDbTextStyleTableRecord
  2
STANDARD
 70
     0
 40
0.0
 41
1.0
 50
0.0
 71
     0
 42
8.0
  3
SIMPLEX.SHX
  4

  0
ENDTAB
  0
TABLE
  2
VIEW
  5
29
330
0
100
AcDbSymbolTable
 70
     0
  0
ENDTAB
  0
TABLE
  2
UCS
  5
2A
330
0
100
AcDbSymbolTable
 70
     0
  0
ENDTAB
  0
TABLE
  2
APPID
  5
30
330
0
100
AcDbSymbolTable
 70
     5
  0
APPID
  5
22
330
30
100
AcDbSymbolTableRecord
100
AcDbRegAppTableRecord
  2
ACAD
 70
     0
  0
APPID
  5
C
330
30
100
AcDbSymbolTableRecord
100
AcDbRegAppTableRecord
  2
ADE
 70
     0
  0
APPID
  5
2F
330
30
100
AcDbSymbolTableRecord
100
AcDbRegAppTableRecord
  2
ACAD_NAV_VCDISPLAY
 70
     0
  0
APPID
  5
63
330
30
100
AcDbSymbolTableRecord
100
AcDbRegAppTableRecord
  2
AcAecLayerStandard
 70
     0
  0
APPID
  5
64
330
30
100
AcDbSymbolTableRecord
100
AcDbRegAppTableRecord
  2
AcCmTransparency
 70
     0
  0
ENDTAB
  0
TABLE
  2
DIMSTYLE
  5
31
330
0
100
AcDbSymbolTable
 70
     1
100
AcDbDimStyleTable
 71
     1
340
32
  0
DIMSTYLE
105
32
330
31
100
AcDbSymbolTableRecord
100
AcDbDimStyleTableRecord
  2
STANDARD
 70
     0
340
24
  0
ENDTAB
  0
TABLE
  2
BLOCK_RECORD
  5
1
330
0
100
AcDbSymbolTable
 70
     0
  0
BLOCK_RECORD
  5
2
102
{ACAD_XDICTIONARY
360
3
102
}
330
1
100
AcDbSymbolTableRecord
100
AcDbBlockTableRecord
  2
*MODEL_SPACE
340
18
 70
     0
280
     1
281
     0
  0
BLOCK_RECORD
  5
1A
330
1
100
AcDbSymbolTableRecord
100
AcDbBlockTableRecord
  2
*PAPER_SPACE
340
1D
 70
     0
280
     1
281
     0
  0
ENDTAB
  0
ENDSEC
  0
SECTION
  2
BLOCKS
  0
BLOCK
  5
5
330
2
100
AcDbEntity
  8
0
100
AcDbBlockBegin
  2
*MODEL_SPACE
 70
     0
 10
0.0
 20
0.0
 30
0.0
  3
*MODEL_SPACE
  1

  0
ENDBLK
  5
17
330
2
100
AcDbEntity
  8
0
100
AcDbBlockEnd
  0
BLOCK
  5
1B
330
1A
100
AcDbEntity
 67
     1
  8
0
100
AcDbBlockBegin
  2
*PAPER_SPACE
 70
     0
 10
0.0
 20
0.0
 30
0.0
  3
*PAPER_SPACE
  1

  0
ENDBLK
  5
1C
330
1A
100
AcDbEntity
 67
     1
  8
0
100
AcDbBlockEnd
  0
ENDSEC
  0
SECTION
  2
ENTITIES
  0
LWPOLYLINE
  5
61
330
2
100
AcDbEntity
  8
seg010
100
AcDbPolyline
 90
       14
 70
     0
 43
0.0
 10
6451466.01296525
 20
1873188.521408194
 10
6451441.040614464
 20
1873208.873246811
 10
6451420.009383288
 20
1873222.682573299
 10
6451408.633093345
 20
1873232.407135984
 10
6451383.214708661
 20
1873257.995547377
 10
6451359.94267034
 20
1873281.430530177
 10
6451334.057058903
 20
1873308.431845637
 10
6451328.104334535
 20
1873314.620660193
 10
6451293.155353678
 20
1873344.64946782
 10
6451278.347320358
 20
1873356.974469545
 10
6451250.430507382
 20
1873378.440125316
 10
6451227.724731005
 20
1873396.000014689
 10
6451204.007020412
 20
1873413.972184797
 10
6451183.278577158
 20
1873429.752947025
  0
LWPOLYLINE
  5
65
330
2
100
AcDbEntity
  8
seg007
100
AcDbPolyline
 90
       14
 70
     0
 43
0.0
 10
6452448.595075807
 20
1872323.673566256
 10
6452420.488935436
 20
1872356.317854379
 10
6452391.467955968
 20
1872395.842847166
 10
6452372.672698081
 20
1872419.332447021
 10
6452355.189687635
 20
1872438.454380118
 10
6452314.233576369
 20
1872481.808265424
 10
6452288.634552746
 20
1872507.925294399
 10
6452254.337673005
 20
1872542.039096909
 10
6452222.093316065
 20
1872574.111333012
 10
6452185.297216326
 20
1872611.317538004
 10
6452142.07726858
 20
1872655.704846942
 10
6452103.923532042
 20
1872694.889107432
 10
6452064.189465182
 20
1872734.152143729
 10
6452058.282089656
 20
1872739.989489815
  0
LWPOLYLINE
  5
68
330
2
100
AcDbEntity
  8
seg007
100
AcDbPolyline
 90
       14
 70
     0
 43
0.0
 10
6452448.595075807
 20
1872323.673566256
 10
6452417.241391978
 20
1872356.317854379
 10
6452385.351329195
 20
1872390.632076267
 10
6452359.037710506
 20
1872419.634351039
 10
6452327.465902364
 20
1872450.388246566
 10
6452301.778116592
 20
1872476.883992319
 10
6452275.318180491
 20
1872503.646618447
 10
6452237.486008288
 20
1872541.950324165
 10
6452230.795412923
 20
1872548.529422918
 10
6452210.760933663
 20
1872568.844067797
 10
6452169.390638548
 20
1872611.035565611
 10
6452139.247246776
 20
1872641.777305414
 10
6452106.301020854
 20
1872675.377515786
 10
6452049.2486602
 20
1872731.771604824
  0
LWPOLYLINE
  5
69
330
2
100
AcDbEntity
  8
seg006
100
AcDbPolyline
 90
       11
 70
     0
 43
0.0
 10
6452623.829819019
 20
1872150.51324519
 10
6452619.995460535
 20
1872154.190398549
 10
6452605.835788321
 20
1872166.498199968
 10
6452589.755515812
 20
1872183.147624411
 10
6452573.600232271
 20
1872199.191438025
 10
6452559.592325592
 20
1872213.102691476
 10
6452539.201911238
 20
1872234.556269388
 10
6452519.098412229
 20
1872254.214322829
 10
6452497.924972679
 20
1872276.181434666
 10
6452476.726882331
 20
1872296.499269085
 10
6452448.595075807
 20
1872323.673566256
  0
LWPOLYLINE
  5
6B
330
2
100
AcDbEntity
  8
seg003
100
AcDbPolyline
 90
       58
 70
     0
 43
0.0
 10
6453989.41361032
 20
1871451.313271859
 10
6453985.329340963
 20
1871452.656895857
 10
6453979.848177124
 20
1871454.653231862
 10
6453970.704723805
 20
1871457.925179692
 10
6453961.729330626
 20
1871460.881754781
 10
6453930.148432751
 20
1871472.488207897
 10
6453895.422084054
 20
1871485.61152056
 10
6453871.792670829
 20
1871494.541229252
 10
6453844.525560482
 20
1871505.705069072
 10
6453816.53262633
 20
1871516.241616117
 10
6453791.34643172
 20
1871525.542020106
 10
6453762.912198108
 20
1871536.626080186
 10
6453730.462864947
 20
1871550.008290179
 10
6453697.578416516
 20
1871562.94896356
 10
6453662.213705097
 20
1871577.136189161
 10
6453638.854496453
 20
1871584.874328515
 10
6453620.193377327
 20
1871591.98419547
 10
6453600.657528133
 20
1871599.619961181
 10
6453577.246031634
 20
1871609.667749194
 10
6453545.407262112
 20
1871622.295325812
 10
6453514.857658262
 20
1871634.730725621
 10
6453485.197587087
 20
1871646.065195518
 10
6453466.179811254
 20
1871653.898518606
 10
6453440.539584648
 20
1871663.61859875
 10
6453412.50011132
 20
1871674.911546016
 10
6453384.815475191
 20
1871686.043412319
 10
6453356.240243717
 20
1871697.013447957
 10
6453323.815163479
 20
1871710.647490296
 10
6453299.123076842
 20
1871721.017519474
 10
6453269.090822925
 20
1871731.833725361
 10
6453245.83826196
 20
1871741.684737592
 10
6453223.579349394
 20
1871750.865350404
 10
6453200.644599592
 20
1871761.864291553
 10
6453182.239422581
 20
1871769.079433957
 10
6453156.808643002
 20
1871781.339690423
 10
6453132.421657865
 20
1871793.438830307
 10
6453110.169395992
 20
1871804.996151112
 10
6453077.570375747
 20
1871822.208095152
 10
6453051.647639315
 20
1871836.341730501
 10
6453023.569813791
 20
1871851.459397783
 10
6452994.71450601
 20
1871868.658960373
 10
6452967.892246046
 20
1871884.885219147
 10
6452942.682451634
 20
1871900.516366353
 10
6452920.896253316
 20
1871914.024738037
 10
6452903.118367807
 20
1871925.047784909
 10
6452880.493985007
 20
1871941.154865291
 10
6452855.358426168
 20
1871959.049738723
 10
6452842.180409914
 20
1871970.188245842
 10
6452814.651274941
 20
1871990.365341011
 10
6452785.010904726
 20
1872012.594675428
 10
6452757.502906591
 20
1872034.84752943
 10
6452734.278557127
 20
1872053.767421212
 10
6452716.051698026
 20
1872068.616069708
 10
6452698.392187524
 20
1872083.862543872
 10
6452682.268336663
 20
1872097.778094555
 10
6452665.861115457
 20
1872111.350537654
 10
6452649.228018483
 20
1872126.312951503
 10
6452623.829819019
 20
1872150.51324519
  0
LWPOLYLINE
  5
6D
330
2
100
AcDbEntity
  8
seg004
100
AcDbPolyline
 90
       45
 70
     0
 43
0.0
 10
6455043.43943399
 20
1871257.629601117
 10
6455011.428697331
 20
1871250.981957394
 10
6454986.919707239
 20
1871250.117993346
 10
6454954.994476515
 20
1871250.689816743
 10
6454911.402502499
 20
1871253.419744836
 10
6454889.543840408
 20
1871254.490027379
 10
6454868.384017082
 20
1871257.518506643
 10
6454835.299284217
 20
1871261.638033401
 10
6454814.241350531
 20
1871265.262553796
 10
6454782.651000132
 20
1871271.403847932
 10
6454753.180856968
 20
1871275.949692026
 10
6454715.294947286
 20
1871283.560778951
 10
6454676.883844101
 20
1871290.762946735
 10
6454641.267337142
 20
1871297.441121475
 10
6454606.463401579
 20
1871303.548562651
 10
6454587.230025309
 20
1871306.668046343
 10
6454571.089016599
 20
1871309.796884627
 10
6454550.617294333
 20
1871313.046674601
 10
6454531.347884048
 20
1871317.611575722
 10
6454514.772280731
 20
1871321.026833225
 10
6454501.071935084
 20
1871323.162341548
 10
6454477.188138199
 20
1871328.179674671
 10
6454459.729888054
 20
1871332.240448796
 10
6454418.865054683
 20
1871341.022291753
 10
6454387.130962217
 20
1871348.260470754
 10
6454358.79695011
 20
1871355.018872881
 10
6454332.6038708
 20
1871361.615920609
 10
6454312.384456926
 20
1871366.344660895
 10
6454294.834363199
 20
1871370.449123849
 10
6454278.685359219
 20
1871373.806287451
 10
6454261.721802417
 20
1871378.370618744
 10
6454243.958435472
 20
1871382.406950928
 10
6454219.715386227
 20
1871388.113203609
 10
6454197.315948517
 20
1871392.781951203
 10
6454178.558074531
 20
1871397.215447046
 10
6454158.341595902
 20
1871402.614407209
 10
6454138.397504427
 20
1871406.954511193
 10
6454099.386563648
 20
1871418.253225953
 10
6454095.960682182
 20
1871419.16883967
 10
6454069.712021091
 20
1871425.797944047
 10
6454045.68854453
 20
1871433.661914546
 10
6454020.865352755
 20
1871441.669069245
 10
6454005.429731404
 20
1871446.169403314
 10
6453998.00908837
 20
1871448.690145552
 10
6453990.98045192
 20
1871451.055619859
  0
LWPOLYLINE
  5
6F
330
2
100
AcDbEntity
  8
seg007
100
AcDbPolyline
 90
       13
 70
     0
 43
0.0
 10
6452440.075150688
 20
1872317.080158691
 10
6452409.159335091
 20
1872349.703572245
 10
6452380.791642688
 20
1872379.693281891
 10
6452357.04401615
 20
1872404.798758025
 10
6452326.639392266
 20
1872436.111512392
 10
6452301.412539734
 20
1872461.724321782
 10
6452262.827269471
 20
1872499.709717783
 10
6452236.883854431
 20
1872526.351523825
 10
6452208.221977405
 20
1872554.319360338
 10
6452172.839478284
 20
1872590.590476518
 10
6452126.148750312
 20
1872638.453823111
 10
6452087.56267025
 20
1872677.000083255
 10
6452040.36073743
 20
1872723.807837565
  0
LWPOLYLINE
  5
70
330
2
100
AcDbEntity
  8
seg006
100
AcDbPolyline
 90
        9
 70
     0
 43
0.0
 10
6452614.28296263
 20
1872140.186243476
 10
6452574.931054118
 20
1872177.246146832
 10
6452562.070819303
 20
1872190.876334218
 10
6452529.441527805
 20
1872226.118899406
 10
6452508.027847486
 20
1872248.182335998
 10
6452488.050792933
 20
1872267.78258642
 10
6452470.080991376
 20
1872285.924633884
 10
6452452.938502704
 20
1872303.723942911
 10
6452440.075150688
 20
1872317.080158691
  0
LWPOLYLINE
  5
71
330
2
100
AcDbEntity
  8
seg002
100
AcDbPolyline
 90
       14
 70
     0
 43
0.0
 10
6454548.126400653
 20
1871282.152163713
 10
6454553.315073479
 20
1871281.110743
 10
6454558.372339483
 20
1871280.079255059
 10
6454563.979165422
 20
1871278.78290802
 10
6454570.125096785
 20
1871277.563384293
 10
6454588.095622263
 20
1871273.526528808
 10
6454649.527549499
 20
1871260.641529789
 10
6454716.491060334
 20
1871248.447378088
 10
6454764.446192431
 20
1871238.243558373
 10
6454810.569227109
 20
1871226.146643536
 10
6454857.565410923
 20
1871214.558909797
 10
6454914.476429191
 20
1871198.318708289
 10
6454958.701500305
 20
1871184.316708845
 10
6454996.410793857
 20
1871168.614745168
  0
LWPOLYLINE
  5
73
330
2
100
AcDbEntity
  8
seg001
100
AcDbPolyline
 90
       13
 70
     0
 43
0.0
 10
6454089.709975225
 20
1871402.844849815
 10
6454089.709975225
 20
1871402.844849815
 10
6454235.989715844
 20
1871365.129556522
 10
6454305.018134263
 20
1871345.345268526
 10
6454352.15049958
 20
1871332.813457507
 10
6454411.105885148
 20
1871316.988312121
 10
6454474.817803948
 20
1871300.0495771
 10
6454521.589850417
 20
1871288.592789743
 10
6454528.26616789
 20
1871287.009354038
 10
6454533.250146014
 20
1871285.691956197
 10
6454538.675645874
 20
1871284.326643726
 10
6454542.733175693
 20
1871283.491585091
 10
6454547.513967557
 20
1871282.289769207
  0
LWPOLYLINE
  5
75
330
2
100
AcDbEntity
  8
seg011
100
AcDbPolyline
 90
       14
 70
     0
 43
0.0
 10
6454543.386014719
 20
1871269.385921011
 10
6454543.386014719
 20
1871269.385921011
 10
6454545.444890859
 20
1871268.862666455
 10
6454547.571986632
 20
1871268.320948558
 10
6454552.670257389
 20
1871266.831930745
 10
6454557.374569437
 20
1871265.443295469
 10
6454563.326776579
 20
1871263.809394636
 10
6454616.756696573
 20
1871249.063469079
 10
6454695.66481246
 20
1871229.695716575
 10
6454767.244907574
 20
1871209.629580335
 10
6454843.204700392
 20
1871186.495728183
 10
6454879.602205393
 20
1871173.819882338
 10
6454943.111413167
 20
1871149.646020499
 10
6454978.073105419
 20
1871134.913364549
  0
LWPOLYLINE
  5
77
330
2
100
AcDbEntity
  8
seg001
100
AcDbPolyline
 90
       25
 70
     0
 43
0.0
 10
6454089.709975221
 20
1871402.844849817
 10
6454089.709975221
 20
1871402.844849817
 10
6454089.709975221
 20
1871402.844849817
 10
6454089.709975221
 20
1871402.844849817
 10
6454089.709975221
 20
1871402.844849817
 10
6454089.709975221
 20
1871402.844849817
 10
6454089.709975221
 20
1871402.844849817
 10
6454089.709975221
 20
1871402.844849817
 10
6454090.025166422
 20
1871402.74741761
 10
6454090.35168064
 20
1871402.639548738
 10
6454091.040834773
 20
1871402.428725836
 10
6454092.655607546
 20
1871401.853686167
 10
6454145.251420842
 20
1871383.803390221
 10
6454169.419779583
 20
1871375.792792634
 10
6454212.89450881
 20
1871361.618400275
 10
6454296.271218005
 20
1871337.180761456
 10
6454350.066224021
 20
1871321.766077347
 10
6454423.697535832
 20
1871300.096046032
 10
6454497.908547213
 20
1871281.483986721
 10
6454523.612477622
 20
1871274.504979746
 10
6454531.354572992
 20
1871272.477747263
 10
6454536.588700845
 20
1871271.072134966
 10
6454539.711359221
 20
1871270.289907777
 10
6454541.336958001
 20
1871269.873397317
 10
6454542.516007807
 20
1871269.546378726
  0
LWPOLYLINE
  5
78
330
2
100
AcDbEntity
  8
seg012
100
AcDbPolyline
 90
       15
 70
     0
 43
0.0
 10
6453982.715168456
 20
1871440.382524345
 10
6453990.440656882
 20
1871437.598827758
 10
6453998.704908221
 20
1871434.696565728
 10
6454009.045039729
 20
1871431.161065848
 10
6454017.237494483
 20
1871428.280868807
 10
6454025.652649532
 20
1871425.518767669
 10
6454034.435458055
 20
1871422.327826291
 10
6454041.369684228
 20
1871420.079095788
 10
6454048.512138382
 20
1871417.451118227
 10
6454053.976218296
 20
1871415.385846333
 10
6454063.825894968
 20
1871411.82682893
 10
6454073.44353944
 20
1871408.319089437
 10
6454083.642450878
 20
1871404.899067292
 10
6454088.794822179
 20
1871403.065321489
 10
6454089.709975225
 20
1871402.844849815
  0
LWPOLYLINE
  5
7A
330
2
100
AcDbEntity
  8
seg003
100
AcDbPolyline
 90
       32
 70
     0
 43
0.0
 10
6452614.28296263
 20
1872140.186243476
 10
6452649.019258823
 20
1872110.573876807
 10
6452692.435721725
 20
1872072.034152482
 10
6452721.805964431
 20
1872045.96291172
 10
6452754.25452596
 20
1872020.295127444
 10
6452794.919512075
 20
1871989.763809578
 10
6452831.586570688
 20
1871962.234140231
 10
6452877.687706305
 20
1871928.671557342
 10
6452929.518278527
 20
1871893.050420177
 10
6452991.879414563
 20
1871856.317965802
 10
6453031.889872874
 20
1871832.992724903
 10
6453077.856933126
 20
1871808.106225659
 10
6453106.61246834
 20
1871792.538020917
 10
6453156.795997566
 20
1871768.311387904
 10
6453208.317476398
 20
1871744.689812214
 10
6453291.177809968
 20
1871710.484695257
 10
6453341.191357399
 20
1871690.490186785
 10
6453388.636705696
 20
1871671.060360714
 10
6453442.729878532
 20
1871649.492720686
 10
6453497.097114831
 20
1871629.330765996
 10
6453550.635038578
 20
1871607.299858888
 10
6453602.715179933
 20
1871586.474319951
 10
6453656.744516434
 20
1871565.571108962
 10
6453713.020954416
 20
1871542.464037238
 10
6453767.683329182
 20
1871522.522861084
 10
6453828.398972641
 20
1871498.562688229
 10
6453881.751009236
 20
1871477.326500105
 10
6453940.993391902
 20
1871455.218806759
 10
6453961.476330989
 20
1871447.889492727
 10
6453972.202656082
 20
1871444.216262135
 10
6453977.097403329
 20
1871442.437411714
 10
6453981.472358861
 20
1871440.824467993
  0
LWPOLYLINE
  5
7B
330
2
100
AcDbEntity
  8
seg005
100
AcDbPolyline
 90
       20
 70
     0
 43
0.0
 10
6451730.668219745
 20
1872915.869620855
 10
6451753.679284421
 20
1872894.97272442
 10
6451788.154106409
 20
1872863.674606993
 10
6451824.321999089
 20
1872829.98797856
 10
6451866.848381139
 20
1872792.509355792
 10
6451912.56484246
 20
1872753.112174782
 10
6451959.298897483
 20
1872712.46444763
 10
6452008.766249782
 20
1872669.306459479
 10
6452058.883000511
 20
1872625.581901085
 10
6452106.256154062
 20
1872583.904165654
 10
6452170.784454349
 20
1872527.0549389
 10
6452218.653150469
 20
1872485.874753158
 10
6452278.576298765
 20
1872432.404799728
 10
6452339.84925511
 20
1872379.29613854
 10
6452382.054981494
 20
1872342.220093704
 10
6452432.336111685
 20
1872298.057642365
 10
6452472.903464939
 20
1872262.711397074
 10
6452527.442275263
 20
1872215.895000337
 10
6452574.931054118
 20
1872173.733376351
 10
6452614.28296263
 20
1872140.186243476
  0
LWPOLYLINE
  5
7D
330
2
100
AcDbEntity
  8
seg009
100
AcDbPolyline
 90
        8
 70
     0
 43
0.0
 10
6451466.01296525
 20
1873188.521408194
 10
6451505.514327848
 20
1873148.097092671
 10
6451558.550103577
 20
1873093.258749274
 10
6451597.857315405
 20
1873052.198580985
 10
6451639.451582512
 20
1873009.484231961
 10
6451662.999080512
 20
1872985.013537899
 10
6451699.61753593
 20
1872946.715135327
 10
6451730.668219745
 20
1872915.869620855
  0
LWPOLYLINE
  5
7F
330
2
100
AcDbEntity
  8
seg010
100
AcDbPolyline
 90
        8
 70
     0
 43
0.0
 10
6451193.04663941
 20
1873437.769982275
 10
6451233.700887216
 20
1873406.373098561
 10
6451271.708404338
 20
1873377.385378371
 10
6451296.253243803
 20
1873357.483412883
 10
6451330.396192863
 20
1873326.588150679
 10
6451370.797566389
 20
1873287.376136879
 10
6451412.915414429
 20
1873243.724395223
 10
6451466.01296525
 20
1873188.521408194
  0
LWPOLYLINE
  5
80
330
2
100
AcDbEntity
  8
seg011
100
AcDbPolyline
 90
       10
 70
     0
 43
0.0
 10
6454550.316892264
 20
1871219.874993326
 10
6454554.403544492
 20
1871218.859915361
 10
6454570.817749801
 20
1871214.579229252
 10
6454595.753750948
 20
1871208.177862397
 10
6454662.40290578
 20
1871191.335793728
 10
6454715.996816321
 20
1871177.368941225
 10
6454781.088501873
 20
1871157.744687707
 10
6454867.168392966
 20
1871129.606306901
 10
6454917.071299016
 20
1871112.181364908
 10
6454961.260837149
 20
1871095.748193758
  0
LWPOLYLINE
  5
81
330
2
100
AcDbEntity
  8
seg001
100
AcDbPolyline
 90
       12
 70
     0
 43
0.0
 10
6454068.44467837
 20
1871363.642965795
 10
6454069.69600091
 20
1871363.211790988
 10
6454146.7058801
 20
1871337.071136716
 10
6454199.376596884
 20
1871320.35436203
 10
6454270.377606372
 20
1871298.134370072
 10
6454324.272873651
 20
1871282.156369539
 10
6454360.058495547
 20
1871271.669689777
 10
6454410.022842103
 20
1871258.008210056
 10
6454500.531978838
 20
1871232.969340024
 10
6454520.45146616
 20
1871227.82285424
 10
6454545.877053455
 20
1871220.922403754
 10
6454549.425931349
 20
1871220.055426029
  0
LWPOLYLINE
  5
82
330
2
100
AcDbEntity
  8
seg012
100
AcDbPolyline
 90
        8
 70
     0
 43
0.0
 10
6453959.313824554
 20
1871401.453551066
 10
6453961.507344762
 20
1871400.541966488
 10
6453963.626863589
 20
1871399.806205372
 10
6453968.075065646
 20
1871398.343913455
 10
6453975.114044916
 20
1871395.668940025
 10
6454039.162766628
 20
1871373.187260559
 10
6454068.310915912
 20
1871363.68859802
 10
6454068.44467837
 20
1871363.642965795
  0
LWPOLYLINE
  5
83
330
2
100
AcDbEntity
  8
seg003
100
AcDbPolyline
 90
       33
 70
     0
 43
0.0
 10
6452583.875953685
 20
1872108.734149148
 10
6452608.831662559
 20
1872088.107874451
 10
6452658.949496797
 20
1872045.414214216
 10
6452672.541585963
 20
1872032.140387727
 10
6452740.079976496
 20
1871976.594722238
 10
6452769.01865062
 20
1871952.489251112
 10
6452837.244662732
 20
1871902.338303501
 10
6452865.873907185
 20
1871881.594137039
 10
6452923.300837642
 20
1871845.446458032
 10
6452981.372583227
 20
1871808.892896799
 10
6453019.887788721
 20
1871787.449222658
 10
6453050.354407181
 20
1871771.367544539
 10
6453095.408259411
 20
1871748.308525152
 10
6453176.778466479
 20
1871710.768852775
 10
6453237.41476559
 20
1871685.043027147
 10
6453298.157201666
 20
1871660.284967617
 10
6453344.192462436
 20
1871641.553432039
 10
6453387.206390274
 20
1871623.504630786
 10
6453434.302977147
 20
1871605.665885817
 10
6453486.384114603
 20
1871584.706578464
 10
6453540.114779518
 20
1871563.915750757
 10
6453597.374495083
 20
1871541.541039655
 10
6453660.34996153
 20
1871515.959025304
 10
6453718.506671632
 20
1871493.842610591
 10
6453767.747246033
 20
1871475.006131668
 10
6453813.910350793
 20
1871456.385102655
 10
6453865.476814467
 20
1871436.344041895
 10
6453916.634517018
 20
1871417.078851722
 10
6453937.517007618
 20
1871409.515201616
 10
6453946.700575268
 20
1871406.043570661
 10
6453952.29233114
 20
1871403.975128149
 10
6453954.962623251
 20
1871402.951520319
 10
6453957.79718447
 20
1871402.008807434
  0
LWPOLYLINE
  5
84
330
2
100
AcDbEntity
  8
seg005
100
AcDbPolyline
 90
       22
 70
     0
 43
0.0
 10
6451697.887955265
 20
1872883.000741936
 10
6451748.803069995
 20
1872837.874330062
 10
6451789.334020507
 20
1872801.758855585
 10
6451844.872528156
 20
1872752.210350509
 10
6451893.180583354
 20
1872709.112470868
 10
6451926.815487248
 20
1872680.756052148
 10
6451962.59588742
 20
1872650.363407334
 10
6452008.75836854
 20
1872610.394185244
 10
6452048.731495242
 20
1872574.009632832
 10
6452096.898778899
 20
1872532.373324879
 10
6452135.715083198
 20
1872498.502240439
 10
6452182.435858571
 20
1872460.554316573
 10
6452221.823142832
 20
1872425.430286315
 10
6452273.689861986
 20
1872379.177587072
 10
6452313.259226207
 20
1872344.948969987
 10
6452348.289374872
 20
1872313.318682263
 10
6452380.024491299
 20
1872286.029544928
 10
6452419.670057365
 20
1872252.216262488
 10
6452456.673188903
 20
1872219.771297304
 10
6452492.661035416
 20
1872188.035259434
 10
6452547.195655864
 20
1872141.245283575
 10
6452583.875953685
 20
1872108.734149148
  0
LWPOLYLINE
  5
85
330
2
100
AcDbEntity
  8
seg008
100
AcDbPolyline
 90
       16
 70
     0
 43
0.0
 10
6451166.985531395
 20
1873369.413223043
 10
6451210.240019153
 20
1873322.823777951
 10
6451249.381889936
 20
1873281.335965493
 10
6451260.742121185
 20
1873269.198508345
 10
6451314.844854969
 20
1873218.309627583
 10
6451335.420948379
 20
1873200.194688605
 10
6451374.766777229
 20
1873164.85235631
 10
6451413.98828576
 20
1873131.567693672
 10
6451456.13819596
 20
1873093.844703725
 10
6451492.020950917
 20
1873063.325369886
 10
6451529.461859609
 20
1873030.336397612
 10
6451572.429301683
 20
1872993.502902496
 10
6451588.075772676
 20
1872979.321997203
 10
6451597.948963828
 20
1872970.641828446
 10
6451659.998534384
 20
1872915.91537412
 10
6451697.887955265
 20
1872883.000741936
  0
LWPOLYLINE
  5
87
330
2
100
AcDbEntity
  8
seg011
100
AcDbPolyline
 90
        9
 70
     0
 43
0.0
 10
6454552.065437852
 20
1871231.260820476
 10
6454554.563539623
 20
1871230.757240319
 10
6454574.610480374
 20
1871225.719310207
 10
6454608.13715686
 20
1871216.336552966
 10
6454663.262327509
 20
1871202.843298669
 10
6454722.012636897
 20
1871187.393435199
 10
6454780.131454384
 20
1871170.204188069
 10
6454843.455832379
 20
1871150.100622089
 10
6454963.564879072
 20
1871105.637561344
  0
LWPOLYLINE
  5
88
330
2
100
AcDbEntity
  8
seg001
100
AcDbPolyline
 90
       12
 70
     0
 43
0.0
 10
6454073.732529248
 20
1871372.87669543
 10
6454075.789906283
 20
1871372.201407281
 10
6454151.80516434
 20
1871346.490468999
 10
6454199.894614762
 20
1871331.369990849
 10
6454247.235765484
 20
1871316.679636867
 10
6454294.963241462
 20
1871302.511298707
 10
6454337.303374941
 20
1871289.455296043
 10
6454383.224737695
 20
1871276.265592955
 10
6454464.942684166
 20
1871253.803318623
 10
6454525.606722353
 20
1871237.719818274
 10
6454550.288857899
 20
1871231.661884617
 10
6454551.369714719
 20
1871231.43251674
  0
LWPOLYLINE
  5
89
330
2
100
AcDbEntity
  8
seg012
100
AcDbPolyline
 90
        8
 70
     0
 43
0.0
 10
6453964.26225941
 20
1871410.94457555
 10
6453966.674536851
 20
1871410.122466751
 10
6453969.078727986
 20
1871409.271767649
 10
6453973.599637707
 20
1871407.55594343
 10
6453981.540784913
 20
1871404.373107465
 10
6454046.271027246
 20
1871381.995852901
 10
6454073.552804985
 20
1871372.939589578
 10
6454073.732529248
 20
1871372.87669543
  0
LWPOLYLINE
  5
8A
330
2
100
AcDbEntity
  8
seg003
100
AcDbPolyline
 90
       35
 70
     0
 43
0.0
 10
6452591.278807618
 20
1872116.186170932
 10
6452613.676227436
 20
1872097.565578499
 10
6452665.843691975
 20
1872053.209478697
 10
6452680.726015795
 20
1872039.099981787
 10
6452728.565623541
 20
1871998.586042953
 10
6452778.203773903
 20
1871958.867316088
 10
6452817.855785919
 20
1871929.984753261
 10
6452856.43372756
 20
1871902.686432922
 10
6452902.360948701
 20
1871872.599676587
 10
6452950.894635415
 20
1871840.805434088
 10
6452983.341866061
 20
1871819.549370736
 10
6453018.841843871
 20
1871801.13453093
 10
6453062.631301678
 20
1871778.419704036
 10
6453108.548241671
 20
1871754.467123632
 10
6453196.196111589
 20
1871713.348156888
 10
6453256.189699482
 20
1871688.289884735
 10
6453303.288243378
 20
1871669.1040551
 10
6453348.463805297
 20
1871651.038826772
 10
6453393.543365433
 20
1871633.082236479
 10
6453444.794943958
 20
1871612.667139379
 10
6453487.318374475
 20
1871595.728734982
 10
6453525.774048138
 20
1871580.410644604
 10
6453568.862119624
 20
1871563.247326154
 10
6453611.859911322
 20
1871546.119968951
 10
6453651.138929574
 20
1871530.473914825
 10
6453694.023475275
 20
1871513.391667024
 10
6453747.605056488
 20
1871494.346581383
 10
6453795.787386558
 20
1871473.822407599
 10
6453837.052036097
 20
1871459.325898511
 10
6453879.721207287
 20
1871443.097714186
 10
6453913.978812458
 20
1871430.068664976
 10
6453939.0720373
 20
1871420.697385477
 10
6453951.559276288
 20
1871415.673918331
 10
6453958.467522535
 20
1871413.122112552
 10
6453963.02927105
 20
1871411.413512767
  0
LWPOLYLINE
  5
8B
330
2
100
AcDbEntity
  8
seg005
100
AcDbPolyline
 90
       21
 70
     0
 43
0.0
 10
6451705.762477376
 20
1872891.762775812
 10
6451746.83855636
 20
1872855.499769445
 10
6451795.550449698
 20
1872812.495672122
 10
6451850.541088161
 20
1872762.540818517
 10
6451900.923679659
 20
1872719.13648221
 10
6451933.771626991
 20
1872690.866811399
 10
6451974.50495652
 20
1872655.117492729
 10
6452031.890507027
 20
1872604.569872559
 10
6452066.945066945
 20
1872573.692333451
 10
6452103.287731666
 20
1872542.240088374
 10
6452149.560848452
 20
1872502.653039456
 10
6452189.620655048
 20
1872468.232734052
 10
6452218.471328097
 20
1872441.629041252
 10
6452282.737125833
 20
1872385.841740479
 10
6452318.846765664
 20
1872354.293357896
 10
6452356.532939467
 20
1872320.803145611
 10
6452436.81696336
 20
1872251.255179369
 10
6452477.134203936
 20
1872214.757032513
 10
6452515.163506028
 20
1872180.330096723
 10
6452540.174887306
 20
1872160.995505773
 10
6452591.278807618
 20
1872116.186170932
  0
LWPOLYLINE
  5
8C
330
2
100
AcDbEntity
  8
seg008
100
AcDbPolyline
 90
       15
 70
     0
 43
0.0
 10
6451174.855499143
 20
1873376.697874544
 10
6451184.617200117
 20
1873365.775080941
 10
6451208.177974919
 20
1873340.422111598
 10
6451240.553811297
 20
1873305.927707853
 10
6451271.335314618
 20
1873273.15403814
 10
6451309.523536425
 20
1873238.024472328
 10
6451347.335875736
 20
1873203.611065589
 10
6451385.240159729
 20
1873169.849933646
 10
6451422.271745457
 20
1873137.662893161
 10
6451458.446124807
 20
1873106.788167714
 10
6451494.780494141
 20
1873075.463275898
 10
6451530.550876145
 20
1873044.08887268
 10
6451566.342004554
 20
1873013.941481116
 10
6451601.989094477
 20
1872982.458588982
 10
6451705.762477376
 20
1872891.762775812
  0
LWPOLYLINE
  5
8D
330
2
100
AcDbEntity
  8
seg011
100
AcDbPolyline
 90
       13
 70
     0
 43
0.0
 10
6454554.573174694
 20
1871241.843641165
 10
6454556.630910304
 20
1871241.301178575
 10
6454576.624645471
 20
1871236.188731618
 10
6454596.811706092
 20
1871231.268039412
 10
6454646.641947684
 20
1871217.946312332
 10
6454669.551581966
 20
1871212.536715222
 10
6454728.324326743
 20
1871196.760658825
 10
6454774.2074625
 20
1871183.633761078
 10
6454823.882944307
 20
1871168.029870996
 10
6454846.109353635
 20
1871160.270283456
 10
6454866.271128649
 20
1871153.918616439
 10
6454923.60156035
 20
1871132.175205879
 10
6454967.049441951
 20
1871114.697179626
  0
LWPOLYLINE
  5
8E
330
2
100
AcDbEntity
  8
seg001
100
AcDbPolyline
 90
       15
 70
     0
 43
0.0
 10
6454079.679661266
 20
1871381.79854806
 10
6454078.060377603
 20
1871382.325553422
 10
6454079.679661266
 20
1871381.79854806
 10
6454134.509351848
 20
1871364.587563017
 10
6454171.118816941
 20
1871351.41665606
 10
6454223.235419147
 20
1871336.978914815
 10
6454273.638707245
 20
1871319.740150994
 10
6454313.174998173
 20
1871308.06672313
 10
6454351.995369637
 20
1871297.02393588
 10
6454410.312266434
 20
1871279.846693676
 10
6454489.134651719
 20
1871258.73949833
 10
6454513.59299049
 20
1871253.059539395
 10
6454536.000260676
 20
1871247.17001834
 10
6454552.243858431
 20
1871242.438295166
 10
6454553.796361259
 20
1871241.987922962
  0
LWPOLYLINE
  5
8F
330
2
100
AcDbEntity
  8
seg012
100
AcDbPolyline
 90
        8
 70
     0
 43
0.0
 10
6453970.09509317
 20
1871420.700322224
 10
6453972.889034105
 20
1871419.877640518
 10
6453975.893847829
 20
1871418.764834585
 10
6453982.137870549
 20
1871416.511523659
 10
6453993.906278959
 20
1871412.155613788
 10
6454017.012371021
 20
1871403.53786433
 10
6454077.686719787
 20
1871382.482656292
 10
6454078.060377603
 20
1871382.325553422
  0
LWPOLYLINE
  5
90
330
2
100
AcDbEntity
  8
seg003
100
AcDbPolyline
 90
       35
 70
     0
 43
0.0
 10
6452598.298366102
 20
1872123.684700353
 10
6452620.020869294
 20
1872104.675585448
 10
6452669.999116197
 20
1872061.601690073
 10
6452713.721004305
 20
1872025.030050529
 10
6452742.958377845
 20
1872001.442803265
 10
6452791.64448208
 20
1871963.909198191
 10
6452826.329781593
 20
1871937.769645486
 10
6452865.815185104
 20
1871910.128394852
 10
6452907.904749753
 20
1871880.664134591
 10
6452980.127665342
 20
1871837.012661651
 10
6453022.047616452
 20
1871811.539469841
 10
6453066.819443331
 20
1871787.96746008
 10
6453111.107020443
 20
1871766.223494618
 10
6453122.720932829
 20
1871760.243582739
 10
6453196.972878186
 20
1871725.322224205
 10
6453248.405959264
 20
1871703.351242522
 10
6453293.001829447
 20
1871685.411640666
 10
6453338.476605123
 20
1871667.608879216
 10
6453382.5051464
 20
1871649.628874209
 10
6453426.782103996
 20
1871631.828869482
 10
6453472.839108605
 20
1871614.292648158
 10
6453518.010418564
 20
1871596.619485675
 10
6453568.066153643
 20
1871576.353250333
 10
6453611.564341033
 20
1871559.522308838
 10
6453659.735647622
 20
1871539.120999755
 10
6453706.51052921
 20
1871521.931906063
 10
6453744.289404887
 20
1871507.24885783
 10
6453785.977532812
 20
1871490.935974975
 10
6453833.910409924
 20
1871472.551989142
 10
6453880.508876956
 20
1871453.855759478
 10
6453946.295775345
 20
1871429.406172367
 10
6453957.220976961
 20
1871425.480216117
 10
6453962.91807898
 20
1871423.371753376
 10
6453965.632101494
 20
1871422.406520253
 10
6453968.547960284
 20
1871421.266267313
  0
LWPOLYLINE
  5
91
330
2
100
AcDbEntity
  8
seg005
100
AcDbPolyline
 90
       28
 70
     0
 43
0.0
 10
6451712.602059782
 20
1872898.715667026
 10
6451735.895985019
 20
1872878.457749249
 10
6451748.759805561
 20
1872867.481444732
 10
6451760.901902661
 20
1872857.397107791
 10
6451784.431301546
 20
1872836.184169979
 10
6451800.777722525
 20
1872821.886228161
 10
6451818.597920514
 20
1872805.267527642
 10
6451854.729164548
 20
1872774.139073951
 10
6451900.828002333
 20
1872733.14735525
 10
6451936.811139675
 20
1872701.150656096
 10
6451965.834021389
 20
1872676.902537556
 10
6451998.882013119
 20
1872647.8577809
 10
6452039.516650502
 20
1872612.145379246
 10
6452079.657346858
 20
1872576.86708557
 10
6452115.78927981
 20
1872546.155582413
 10
6452149.25553534
 20
1872516.841578317
 10
6452178.749335356
 20
1872491.456766407
 10
6452209.560124665
 20
1872464.938444217
 10
6452240.615010891
 20
1872437.124350789
 10
6452294.105865661
 20
1872390.933603752
 10
6452327.775608861
 20
1872360.386087286
 10
6452376.319625768
 20
1872318.338422125
 10
6452399.759088363
 20
1872299.209695976
 10
6452439.771723816
 20
1872263.275121789
 10
6452475.578550262
 20
1872231.064559435
 10
6452514.296771177
 20
1872196.235008962
 10
6452544.750953607
 20
1872170.651109447
 10
6452598.298366102
 20
1872123.684700353
  0
LWPOLYLINE
  5
92
330
2
100
AcDbEntity
  8
seg008
100
AcDbPolyline
 90
       27
 70
     0
 43
0.0
 10
6451183.466407189
 20
1873382.716060708
 10
6451197.026244574
 20
1873367.425855002
 10
6451215.731127003
 20
1873347.743346096
 10
6451232.432366327
 20
1873329.558755202
 10
6451249.361155415
 20
1873312.565375064
 10
6451259.19096533
 20
1873302.132734083
 10
6451283.522414391
 20
1873278.447293411
 10
6451292.86060856
 20
1873269.357031528
 10
6451318.170607099
 20
1873245.462567819
 10
6451348.364049804
 20
1873216.50446516
 10
6451357.260121961
 20
1873208.711171629
 10
6451389.187938827
 20
1873180.741204183
 10
6451401.664080214
 20
1873168.336612336
 10
6451423.915930109
 20
1873149.931223055
 10
6451445.999801493
 20
1873130.508555687
 10
6451460.720461597
 20
1873118.4683151
 10
6451471.951025292
 20
1873109.282674793
 10
6451498.268634144
 20
1873087.757122268
 10
6451518.237304087
 20
1873069.299783009
 10
6451533.484830198
 20
1873056.827205349
 10
6451551.639791539
 20
1873040.788696904
 10
6451569.381113661
 20
1873025.498592816
 10
6451592.951360926
 20
1873005.18491317
 10
6451596.326869023
 20
1873002.777647699
 10
6451622.318393392
 20
1872980.000141261
 10
6451678.02570756
 20
1872931.181392155
 10
6451712.602059782
 20
1872898.715667026
  0
LWPOLYLINE
  5
93
330
2
100
AcDbEntity
  8
seg011
100
AcDbPolyline
 90
       12
 70
     0
 43
0.0
 10
6454539.21890922
 20
1871257.728666579
 10
6454543.062269591
 20
1871256.856661247
 10
6454616.636270266
 20
1871237.437265965
 10
6454654.671680233
 20
1871227.403163124
 10
6454717.635405357
 20
1871211.698317758
 10
6454765.781390218
 20
1871197.851625209
 10
6454805.267614582
 20
1871184.826868492
 10
6454851.240164388
 20
1871170.606060602
 10
6454875.739493918
 20
1871163.156919444
 10
6454920.891643747
 20
1871146.176929715
 10
6454960.94799412
 20
1871129.615603282
 10
6454972.259164169
 20
1871125.608257771
  0
LWPOLYLINE
  5
94
330
2
100
AcDbEntity
  8
seg001
100
AcDbPolyline
 90
       13
 70
     0
 43
0.0
 10
6454084.799221321
 20
1871392.37813315
 10
6454087.008400985
 20
1871391.774959968
 10
6454088.920118388
 20
1871391.160066388
 10
6454093.634647913
 20
1871389.549565867
 10
6454106.836147395
 20
1871385.033360411
 10
6454129.927147555
 20
1871377.74308675
 10
6454179.327312868
 20
1871361.10063227
 10
6454264.282308293
 20
1871333.504160727
 10
6454297.391847793
 20
1871324.384664452
 10
6454345.75896742
 20
1871309.798705592
 10
6454409.164642032
 20
1871292.859844415
 10
6454524.517625655
 20
1871261.624350433
 10
6454537.374368604
 20
1871258.217450233
  0
LWPOLYLINE
  5
95
330
2
100
AcDbEntity
  8
seg012
100
AcDbPolyline
 90
        7
 70
     0
 43
0.0
 10
6453975.2706228
 20
1871430.751659076
 10
6453979.83386236
 20
1871429.295548174
 10
6453984.748277816
 20
1871427.403585727
 10
6453995.084237834
 20
1871423.84548039
 10
6454038.29726933
 20
1871408.324764664
 10
6454084.40388395
 20
1871392.501560546
 10
6454084.799221321
 20
1871392.37813315
  0
LWPOLYLINE
  5
96
330
2
100
AcDbEntity
  8
seg003
100
AcDbPolyline
 90
       32
 70
     0
 43
0.0
 10
6452605.519581385
 20
1872131.149853922
 10
6452645.553619581
 20
1872096.816601763
 10
6452683.406760176
 20
1872064.537462329
 10
6452727.675098189
 20
1872029.333329466
 10
6452784.123977419
 20
1871984.442693549
 10
6452824.809304845
 20
1871953.549890943
 10
6452865.850283391
 20
1871924.052563251
 10
6452902.988437222
 20
1871897.360307553
 10
6452984.862297353
 20
1871847.291076921
 10
6453025.211615073
 20
1871822.615810705
 10
6453070.761394522
 20
1871799.41225381
 10
6453089.20066254
 20
1871789.012238101
 10
6453111.823523268
 20
1871778.191977014
 10
6453130.396783636
 20
1871768.329926507
 10
6453158.017931049
 20
1871754.733368497
 10
6453192.908009976
 20
1871740.371938682
 10
6453288.824841079
 20
1871699.131397932
 10
6453335.231917447
 20
1871680.282129279
 10
6453378.491358171
 20
1871662.679928621
 10
6453420.7300935
 20
1871645.493051436
 10
6453475.136768661
 20
1871624.689832727
 10
6453517.687269315
 20
1871607.975565209
 10
6453598.700545561
 20
1871576.152729968
 10
6453686.263024465
 20
1871541.757301608
 10
6453730.572094251
 20
1871524.241089654
 10
6453775.78007598
 20
1871506.369520836
 10
6453816.709794819
 20
1871490.984513841
 10
6453862.617661578
 20
1871472.70082681
 10
6453949.503757899
 20
1871439.732886018
 10
6453961.561814797
 20
1871435.465867696
 10
6453967.708481857
 20
1871433.474758508
 10
6453973.981641788
 20
1871431.200942721
  0
LWPOLYLINE
  5
97
330
2
100
AcDbEntity
  8
seg005
100
AcDbPolyline
 90
       48
 70
     0
 43
0.0
 10
6451720.765084569
 20
1872907.593275224
 10
6451756.988482108
 20
1872875.127899418
 10
6451780.543712067
 20
1872853.3722676
 10
6451793.727812121
 20
1872842.217318496
 10
6451805.855804915
 20
1872831.982809574
 10
6451822.479410215
 20
1872816.596655082
 10
6451838.005094622
 20
1872802.565959027
 10
6451864.581389777
 20
1872779.497792853
 10
6451881.752436102
 20
1872764.656654691
 10
6451901.832721516
 20
1872747.48603149
 10
6451910.102348428
 20
1872740.414685402
 10
6451926.400157899
 20
1872725.651333662
 10
6451937.662692127
 20
1872716.352778784
 10
6451950.277005326
 20
1872705.176461881
 10
6451954.874730513
 20
1872701.102864458
 10
6451977.693606904
 20
1872680.885275921
 10
6451993.984210739
 20
1872666.555309087
 10
6452009.133040611
 20
1872653.229699316
 10
6452034.178035837
 20
1872630.930713923
 10
6452046.128364624
 20
1872621.069066567
 10
6452070.21671512
 20
1872600.443955749
 10
6452079.716893844
 20
1872591.822937838
 10
6452100.119915453
 20
1872573.308042503
 10
6452118.312900793
 20
1872558.173895106
 10
6452141.216124445
 20
1872538.567133405
 10
6452153.778892165
 20
1872526.833259472
 10
6452168.485061413
 20
1872514.683255817
 10
6452181.89025775
 20
1872503.690967829
 10
6452193.21819997
 20
1872493.47747351
 10
6452208.69447056
 20
1872480.370825366
 10
6452220.977452563
 20
1872469.876331625
 10
6452227.430161898
 20
1872463.907441796
 10
6452238.130000543
 20
1872454.69699026
 10
6452258.810082983
 20
1872435.72329736
 10
6452282.361550125
 20
1872414.491809545
 10
6452298.581966844
 20
1872400.543265412
 10
6452334.21479049
 20
1872369.901265156
 10
6452369.273937269
 20
1872337.890068878
 10
6452405.829161237
 20
1872307.034986787
 10
6452441.971114544
 20
1872275.622391313
 10
6452457.726563412
 20
1872261.888457738
 10
6452474.700367032
 20
1872246.638490667
 10
6452489.390084498
 20
1872233.440641049
 10
6452507.140098032
 20
1872218.005560705
 10
6452519.937839818
 20
1872207.202115725
 10
6452546.900285575
 20
1872184.274592231
 10
6452565.683074346
 20
1872167.010546083
 10
6452605.519581385
 20
1872131.149853922
  0
LWPOLYLINE
  5
98
330
2
100
AcDbEntity
  8
seg008
100
AcDbPolyline
 90
       40
 70
     0
 43
0.0
 10
6451191.984542523
 20
1873389.689747457
 10
6451198.077262765
 20
1873382.971718561
 10
6451201.616541139
 20
1873379.069196627
 10
6451209.285270817
 20
1873370.339541988
 10
6451214.720618581
 20
1873364.298336012
 10
6451220.826106617
 20
1873357.70045405
 10
6451224.380633353
 20
1873353.859262699
 10
6451232.833493588
 20
1873345.167886179
 10
6451247.062812809
 20
1873330.156726921
 10
6451258.192073729
 20
1873319.659131003
 10
6451267.049820469
 20
1873309.793977326
 10
6451282.153507166
 20
1873294.377160442
 10
6451291.553364585
 20
1873285.609539262
 10
6451307.580429185
 20
1873270.279060772
 10
6451326.901313926
 20
1873251.797921813
 10
6451348.113909882
 20
1873231.507291298
 10
6451368.226547445
 20
1873214.335232
 10
6451394.711825959
 20
1873190.557384595
 10
6451407.371474097
 20
1873178.313327493
 10
6451425.732719862
 20
1873163.232349844
 10
6451440.793893922
 20
1873150.32524977
 10
6451458.88251907
 20
1873134.823689662
 10
6451473.124887366
 20
1873122.618288402
 10
6451482.675032531
 20
1873114.43402077
 10
6451506.71812295
 20
1873093.297957641
 10
6451516.46768467
 20
1873085.189149648
 10
6451531.505701102
 20
1873072.71654856
 10
6451542.42718656
 20
1873063.658217495
 10
6451545.0191817
 20
1873061.508404615
 10
6451560.001496623
 20
1873047.818427263
 10
6451577.510408663
 20
1873032.699681498
 10
6451584.36065598
 20
1873027.088442778
 10
6451604.153874164
 20
1873010.875236581
 10
6451623.686505854
 20
1872993.01886936
 10
6451636.472167417
 20
1872981.330456265
 10
6451656.354395893
 20
1872963.154494192
 10
6451673.891770374
 20
1872947.927126348
 10
6451686.632926445
 20
1872937.628837784
 10
6451703.844608658
 20
1872922.062023685
 10
6451720.765084569
 20
1872907.593275224
  0
ENDSEC
  0
SECTION
  2
OBJECTS
  0
DICTIONARY
  5
B
330
0
100
AcDbDictionary
281
     1
  3
ACAD_COLOR
350
47
  3
ACAD_GROUP
350
34
  3
ACAD_LAYOUT
350
19
  3
ACAD_MATERIAL
350
E
  3
ACAD_MLEADERSTYLE
350
4A
  3
ACAD_MLINESTYLE
350
35
  3
ACAD_PLOTSETTINGS
350
36
  3
ACAD_PLOTSTYLENAME
350
A
  3
ACAD_SCALELIST
350
48
  3
ACAD_TABLESTYLE
350
49
  3
ACAD_VISUALSTYLE
350
2E
  3
ACDB_RECOMPOSE_DATA
350
A5
  3
AcDbVariableDictionary
350
9A
1001
ADE
1000
ADE02C004
1000
[Query]
1000
CaseSensitiveMatch=0
1000
SaveCurrQueryInSession=1
1000
MkSelSetWithQryObj=0
1000
ShowBlockAsInsPt=0
1000
CreateAssociativeHatchObjects=0
1000
ReferenceBoundaryForAreaLocation=1
1000
ShowImageAsBoundary=1
1000
DefaultJoinOperator=2
1000
ColorForAdd=red
1000
ColorForRemove=red
1000
BlockLocnForQuery=1
1000
TextLocnForQuery=1
1000
[Save Back]
1000
RedefineBlockDefinitions=1
1000
RedefineLayerDefinitions=1
1000
RedefineTextStyleDefinitions=1
1000
RemoveUnusedGroups=1
1000
EraseSavedBackObjects=1
1000
RemoveLockAfterSave=1
1000
CreateHistoryFileOfChanges=0
1000
CreateBackupFileOfSourceDwg=1
1000
DontAddObjectsToSaveSet=0
1000
MarkObjectsForEditingWithoutPrompting=0
1000
[Coordinate Transformation]
1000
RestoreLastActiveDwgsOnStartup=1
1000
ActivateDwgsOnAttach=1
1000
AdjustSizesAndScalesForChangesInUnits=1
1000
AdjustRotationsForMapDistortions=1
1000
AdjustSizesAndScalesForMapDistortions=1
1000
AdjustElevations=1
1000
AdjustZeroRotationObjects=1
1000
ReconnectDbOnWSOpen=1
1000
NoOfSQLConditionsInHistory=10
  0
DICTIONARY
  5
1F
330
1E
100
AcDbDictionary
280
     1
281
     1
  3
ACAD_LAYERSTATES
360
20
  3
ACLYDICTIONARY
360
21
  0
DICTIONARY
  5
7
330
6
100
AcDbDictionary
280
     1
281
     1
  3
ADSK_XREC_LAYER_RECONCILED
360
8
  0
DICTIONARY
  5
3
330
2
100
AcDbDictionary
280
     1
281
     1
  3
ACAD_SORTENTS
360
99
  0
DICTIONARY
  5
47
102
{ACAD_REACTORS
330
B
102
}
330
B
100
AcDbDictionary
281
     1
  0
DICTIONARY
  5
34
102
{ACAD_REACTORS
330
B
102
}
330
B
100
AcDbDictionary
281
     1
  0
DICTIONARY
  5
19
102
{ACAD_REACTORS
330
B
102
}
330
B
100
AcDbDictionary
281
     1
  3
Layout1
350
1D
  3
Model
350
18
  0
DICTIONARY
  5
E
102
{ACAD_REACTORS
330
B
102
}
330
B
100
AcDbDictionary
281
     1
  3
ByBlock
350
3F
  3
ByLayer
350
37
  3
Global
350
D
  0
DICTIONARY
  5
4A
102
{ACAD_REACTORS
330
B
102
}
330
B
100
AcDbDictionary
281
     1
  0
DICTIONARY
  5
35
102
{ACAD_REACTORS
330
B
102
}
330
B
100
AcDbDictionary
281
     1
  3
STANDARD
350
4B
  0
DICTIONARY
  5
36
102
{ACAD_REACTORS
330
B
102
}
330
B
100
AcDbDictionary
281
     1
  0
ACDBDICTIONARYWDFLT
  5
A
102
{ACAD_REACTORS
330
B
102
}
330
B
100
AcDbDictionary
281
     1
  3
Normal
350
9
100
AcDbDictionaryWithDefault
340
9
  0
DICTIONARY
  5
48
102
{ACAD_REACTORS
330
B
102
}
330
B
100
AcDbDictionary
281
     1
  3
A0
350
50
  3
A1
350
51
  3
A2
350
52
  3
A3
350
53
  3
A4
350
54
  3
A5
350
55
  3
A6
350
56
  3
A7
350
57
  3
A8
350
58
  3
A9
350
59
  3
B0
350
5A
  3
B1
350
5B
  3
B2
350
5C
  3
B3
350
5D
  3
B4
350
5E
  3
B5
350
5F
  3
B6
350
60
  0
DICTIONARY
  5
49
102
{ACAD_REACTORS
330
B
102
}
330
B
100
AcDbDictionary
281
     1
  3
Standard
350
4C
  0
DICTIONARY
  5
2E
102
{ACAD_REACTORS
330
B
102
}
330
B
100
AcDbDictionary
281
     1
  3
2dWireframe
350
2D
  3
Realistic
350
4E
  3
Wireframe
350
4F
  0
XRECORD
  5
A5
102
{ACAD_REACTORS
330
B
102
}
330
B
100
AcDbXrecord
280
     1
 90
        1
330
4C
  0
DICTIONARY
  5
9A
102
{ACAD_REACTORS
330
B
102
}
330
B
100
AcDbDictionary
281
     1
  3
CANNOSCALE
350
A0
  3
CMLEADERSTYLE
350
9C
  3
CTABLESTYLE
350
9B
  3
CVIEWDETAILSTYLE
350
9D
  3
CVIEWSECTIONSTYLE
350
9E
  3
LAYEREVAL
350
A2
  3
LAYERNOTIFY
350
A3
  3
LIGHTINGUNITS
350
A1
  3
MSLTSCALE
350
9F
  0
DICTIONARY
  5
20
102
{ACAD_REACTORS
330
1F
102
}
330
1F
100
AcDbDictionary
281
     1
  0
DICTIONARY
  5
21
102
{ACAD_REACTORS
330
1F
102
}
330
1F
100
AcDbDictionary
281
     1
1001
ACAD
1000
<All
  0
XRECORD
  5
8
102
{ACAD_REACTORS
330
7
102
}
330
7
100
AcDbXrecord
280
     1
290
     1
  0
SORTENTSTABLE
  5
99
102
{ACAD_REACTORS
330
3
102
}
330
3
100
AcDbSortentsTable
330
2
331
77
  5
8D
331
8F
  5
73
331
7F
  5
88
331
8E
  5
75
331
91
  5
70
331
69
  5
95
331
81
  5
85
331
90
  5
71
331
68
  5
96
331
80
  5
87
331
93
  5
6D
331
6B
  5
94
331
92
  5
6F
331
82
  5
84
331
95
  5
69
331
6D
  5
93
331
85
  5
81
331
94
  5
6B
331
84
  5
82
331
97
  5
65
331
6F
  5
92
331
87
  5
80
331
96
  5
68
331
71
  5
90
331
89
  5
7D
331
70
  5
91
331
61
  5
98
331
88
  5
7F
331
73
  5
8F
331
78
  5
8C
331
8B
  5
7A
331
7B
  5
8A
331
8A
  5
7B
331
75
  5
8E
331
7A
  5
8B
331
8D
  5
77
331
98
  5
61
331
65
  5
97
331
7D
  5
89
331
8C
  5
78
  0
LAYOUT
  5
1D
102
{ACAD_REACTORS
330
19
102
}
330
19
100
AcDbPlotSettings
  1

  2
HP5SIMX
  4

  6

 40
0.0
 41
0.0
 42
0.0
 43
0.0
 44
0.0
 45
0.0
 46
0.0
 47
0.0
 48
0.0
 49
0.0
140
0.0
141
0.0
142
1.0
143
1.0
 70
   688
 72
     0
 73
     0
 74
     5
  7
Default R14 pen assignments.ctb
 75
    16
147
1.0
 76
     0
 77
     2
 78
   300
148
0.0
149
0.0
100
AcDbLayout
  1
Layout1
 70
     0
 71
     1
 10
0.0
 20
0.0
 11
12.0
 21
9.0
 12
0.0
 22
0.0
 32
0.0
 14
1.000000000000000E+20
 24
1.000000000000000E+20
 34
1.000000000000000E+20
 15
-1.000000000000000E+20
 25
-1.000000000000000E+20
 35
-1.000000000000000E+20
146
0.0
 13
0.0
 23
0.0
 33
0.0
 16
1.0
 26
0.0
 36
0.0
 17
0.0
 27
1.0
 37
0.0
 76
     0
330
1A
  0
LAYOUT
  5
18
102
{ACAD_REACTORS
330
19
102
}
330
19
100
AcDbPlotSettings
  1

  2
HP5SIMX
  4

  6

 40
0.0
 41
0.0
 42
0.0
 43
0.0
 44
0.0
 45
0.0
 46
0.0
 47
0.0
 48
0.0
 49
0.0
140
0.0
141
0.0
142
1.0
143
1.0
 70
  1712
 72
     0
 73
     0
 74
     0
  7
Default R14 pen assignments.ctb
 75
     0
147
1.0
 76
     0
 77
     2
 78
   300
148
0.0
149
0.0
100
AcDbLayout
  1
Model
 70
     1
 71
     0
 10
0.0
 20
0.0
 11
12.0
 21
9.0
 12
0.0
 22
0.0
 32
0.0
 14
0.0
 24
0.0
 34
0.0
 15
0.0
 25
0.0
 35
0.0
146
0.0
 13
0.0
 23
0.0
 33
0.0
 16
1.0
 26
0.0
 36
0.0
 17
0.0
 27
1.0
 37
0.0
 76
     0
330
2
331
2C
  0
MATERIAL
  5
3F
102
{ACAD_XDICTIONARY
360
40
102
}
102
{ACAD_REACTORS
330
E
102
}
330
E
100
AcDbMaterial
  1
ByBlock
 72
     0
 43
0.0208333333333333
 43
0.0
 43
0.0
 43
0.0
 43
0.0
 43
0.0208333333333333
 43
0.0
 43
0.0
 43
0.0
 43
0.0
 43
1.0
 43
0.0
 43
0.0
 43
0.0
 43
0.0
 43
1.0
 77
     0
 47
0.0208333333333333
 47
0.0
 47
0.0
 47
0.0
 47
0.0
 47
0.0208333333333333
 47
0.0
 47
0.0
 47
0.0
 47
0.0
 47
1.0
 47
0.0
 47
0.0
 47
0.0
 47
0.0
 47
1.0
171
     0
 49
0.0208333333333333
 49
0.0
 49
0.0
 49
0.0
 49
0.0
 49
0.0208333333333333
 49
0.0
 49
0.0
 49
0.0
 49
0.0
 49
1.0
 49
0.0
 49
0.0
 49
0.0
 49
0.0
 49
1.0
175
     0
142
0.0208333333333333
142
0.0
142
0.0
142
0.0
142
0.0
142
0.0208333333333333
142
0.0
142
0.0
142
0.0
142
0.0
142
1.0
142
0.0
142
0.0
142
0.0
142
0.0
142
1.0
179
     0
144
0.0208333333333333
144
0.0
144
0.0
144
0.0
144
0.0
144
0.0208333333333333
144
0.0
144
0.0
144
0.0
144
0.0
144
1.0
144
0.0
144
0.0
144
0.0
144
0.0
144
1.0
147
0.0208333333333333
147
0.0
147
0.0
147
0.0
147
0.0
147
0.0208333333333333
147
0.0
147
0.0
147
0.0
147
0.0
147
1.0
147
0.0
147
0.0
147
0.0
147
0.0
147
1.0
  0
MATERIAL
  5
37
102
{ACAD_XDICTIONARY
360
38
102
}
102
{ACAD_REACTORS
330
E
102
}
330
E
100
AcDbMaterial
  1
ByLayer
 72
     0
 43
0.0208333333333333
 43
0.0
 43
0.0
 43
0.0
 43
0.0
 43
0.0208333333333333
 43
0.0
 43
0.0
 43
0.0
 43
0.0
 43
1.0
 43
0.0
 43
0.0
 43
0.0
 43
0.0
 43
1.0
 77
     0
 47
0.0208333333333333
 47
0.0
 47
0.0
 47
0.0
 47
0.0
 47
0.0208333333333333
 47
0.0
 47
0.0
 47
0.0
 47
0.0
 47
1.0
 47
0.0
 47
0.0
 47
0.0
 47
0.0
 47
1.0
171
     0
 49
0.0208333333333333
 49
0.0
 49
0.0
 49
0.0
 49
0.0
 49
0.0208333333333333
 49
0.0
 49
0.0
 49
0.0
 49
0.0
 49
1.0
 49
0.0
 49
0.0
 49
0.0
 49
0.0
 49
1.0
175
     0
142
0.0208333333333333
142
0.0
142
0.0
142
0.0
142
0.0
142
0.0208333333333333
142
0.0
142
0.0
142
0.0
142
0.0
142
1.0
142
0.0
142
0.0
142
0.0
142
0.0
142
1.0
179
     0
144
0.0208333333333333
144
0.0
144
0.0
144
0.0
144
0.0
144
0.0208333333333333
144
0.0
144
0.0
144
0.0
144
0.0
144
1.0
144
0.0
144
0.0
144
0.0
144
0.0
144
1.0
147
0.0208333333333333
147
0.0
147
0.0
147
0.0
147
0.0
147
0.0208333333333333
147
0.0
147
0.0
147
0.0
147
0.0
147
1.0
147
0.0
147
0.0
147
0.0
147
0.0
147
1.0
  0
MATERIAL
  5
D
102
{ACAD_XDICTIONARY
360
F
102
}
102
{ACAD_REACTORS
330
E
102
}
330
E
100
AcDbMaterial
  1
Global
 72
     0
 43
0.0208333333333333
 43
0.0
 43
0.0
 43
0.0
 43
0.0
 43
0.0208333333333333
 43
0.0
 43
0.0
 43
0.0
 43
0.0
 43
1.0
 43
0.0
 43
0.0
 43
0.0
 43
0.0
 43
1.0
 77
     0
 47
0.0208333333333333
 47
0.0
 47
0.0
 47
0.0
 47
0.0
 47
0.0208333333333333
 47
0.0
 47
0.0
 47
0.0
 47
0.0
 47
1.0
 47
0.0
 47
0.0
 47
0.0
 47
0.0
 47
1.0
171
     0
 49
0.0208333333333333
 49
0.0
 49
0.0
 49
0.0
 49
0.0
 49
0.0208333333333333
 49
0.0
 49
0.0
 49
0.0
 49
0.0
 49
1.0
 49
0.0
 49
0.0
 49
0.0
 49
0.0
 49
1.0
175
     0
142
0.0208333333333333
142
0.0
142
0.0
142
0.0
142
0.0
142
0.0208333333333333
142
0.0
142
0.0
142
0.0
142
0.0
142
1.0
142
0.0
142
0.0
142
0.0
142
0.0
142
1.0
179
     0
144
0.0208333333333333
144
0.0
144
0.0
144
0.0
144
0.0
144
0.0208333333333333
144
0.0
144
0.0
144
0.0
144
0.0
144
1.0
144
0.0
144
0.0
144
0.0
144
0.0
144
1.0
147
0.0208333333333333
147
0.0
147
0.0
147
0.0
147
0.0
147
0.0208333333333333
147
0.0
147
0.0
147
0.0
147
0.0
147
1.0
147
0.0
147
0.0
147
0.0
147
0.0
147
1.0
  0
MLINESTYLE
  5
4B
102
{ACAD_REACTORS
330
35
102
}
330
35
100
AcDbMlineStyle
  2
STANDARD
 70
     0
  3

 62
     0
 51
90.0
 52
90.0
 71
     2
 49
0.5
 62
   256
  6
BYLAYER
 49
-0.5
 62
   256
  6
BYLAYER
  0
ACDBPLACEHOLDER
  5
9
102
{ACAD_REACTORS
330
A
102
}
330
A
  0
SCALE
  5
50
102
{ACAD_REACTORS
330
48
102
}
330
48
100
AcDbScale
 70
     0
300
1:1
140
1.0
141
1.0
290
     1
  0
SCALE
  5
51
102
{ACAD_REACTORS
330
48
102
}
330
48
100
AcDbScale
 70
     0
300
1/128" = 1'-0"
140
0.0078125
141
12.0
290
     0
  0
SCALE
  5
52
102
{ACAD_REACTORS
330
48
102
}
330
48
100
AcDbScale
 70
     0
300
1/64" = 1'-0"
140
0.015625
141
12.0
290
     0
  0
SCALE
  5
53
102
{ACAD_REACTORS
330
48
102
}
330
48
100
AcDbScale
 70
     0
300
1/32" = 1'-0"
140
0.03125
141
12.0
290
     0
  0
SCALE
  5
54
102
{ACAD_REACTORS
330
48
102
}
330
48
100
AcDbScale
 70
     0
300
1/16" = 1'-0"
140
0.0625
141
12.0
290
     0
  0
SCALE
  5
55
102
{ACAD_REACTORS
330
48
102
}
330
48
100
AcDbScale
 70
     0
300
3/32" = 1'-0"
140
0.09375
141
12.0
290
     0
  0
SCALE
  5
56
102
{ACAD_REACTORS
330
48
102
}
330
48
100
AcDbScale
 70
     0
300
1/8" = 1'-0"
140
0.125
141
12.0
290
     0
  0
SCALE
  5
57
102
{ACAD_REACTORS
330
48
102
}
330
48
100
AcDbScale
 70
     0
300
3/16" = 1'-0"
140
0.1875
141
12.0
290
     0
  0
SCALE
  5
58
102
{ACAD_REACTORS
330
48
102
}
330
48
100
AcDbScale
 70
     0
300
1/4" = 1'-0"
140
0.25
141
12.0
290
     0
  0
SCALE
  5
59
102
{ACAD_REACTORS
330
48
102
}
330
48
100
AcDbScale
 70
     0
300
3/8" = 1'-0"
140
0.375
141
12.0
290
     0
  0
SCALE
  5
5A
102
{ACAD_REACTORS
330
48
102
}
330
48
100
AcDbScale
 70
     0
300
1/2" = 1'-0"
140
0.5
141
12.0
290
     0
  0
SCALE
  5
5B
102
{ACAD_REACTORS
330
48
102
}
330
48
100
AcDbScale
 70
     0
300
3/4" = 1'-0"
140
0.75
141
12.0
290
     0
  0
SCALE
  5
5C
102
{ACAD_REACTORS
330
48
102
}
330
48
100
AcDbScale
 70
     0
300
1" = 1'-0"
140
1.0
141
12.0
290
     0
  0
SCALE
  5
5D
102
{ACAD_REACTORS
330
48
102
}
330
48
100
AcDbScale
 70
     0
300
1-1/2" = 1'-0"
140
1.5
141
12.0
290
     0
  0
SCALE
  5
5E
102
{ACAD_REACTORS
330
48
102
}
330
48
100
AcDbScale
 70
     0
300
3" = 1'-0"
140
3.0
141
12.0
290
     0
  0
SCALE
  5
5F
102
{ACAD_REACTORS
330
48
102
}
330
48
100
AcDbScale
 70
     0
300
6" = 1'-0"
140
6.0
141
12.0
290
     0
  0
SCALE
  5
60
102
{ACAD_REACTORS
330
48
102
}
330
48
100
AcDbScale
 70
     0
300
1'-0" = 1'-0"
140
12.0
141
12.0
290
     0
  0
TABLESTYLE
  5
4C
102
{ACAD_XDICTIONARY
360
4D
102
}
102
{ACAD_REACTORS
330
49
102
}
330
49
100
AcDbTableStyle
280
     0
  3
Standard
 70
     0
 71
     0
 40
0.06
 41
0.06
280
     0
281
     0
  7
STANDARD
140
0.18
170
     2
 62
     0
 63
     7
283
     0
 90
      512
 91
        0
  1

274
    -2
284
     1
 64
     0
275
    -2
285
     1
 65
     0
276
    -2
286
     1
 66
     0
277
    -2
287
     1
 67
     0
278
    -2
288
     1
 68
     0
279
    -2
289
     1
 69
     0
  7
STANDARD
140
0.25
170
     5
 62
     0
 63
     7
283
     0
 90
      512
 91
        0
  1

274
    -2
284
     1
 64
     0
275
    -2
285
     1
 65
     0
276
    -2
286
     1
 66
     0
277
    -2
287
     1
 67
     0
278
    -2
288
     1
 68
     0
279
    -2
289
     1
 69
     0
  7
STANDARD
140
0.18
170
     5
 62
     0
 63
     7
283
     0
 90
      512
 91
        0
  1

274
    -2
284
     1
 64
     0
275
    -2
285
     1
 65
     0
276
    -2
286
     1
 66
     0
277
    -2
287
     1
 67
     0
278
    -2
288
     1
 68
     0
279
    -2
289
     1
 69
     0
  0
VISUALSTYLE
  5
2D
102
{ACAD_REACTORS
330
2E
102
}
330
2E
100
AcDbVisualStyle
  2
2dWireframe
 70
     4
177
     3
291
     0
 70
    58
 90
        0
176
     1
 90
        2
176
     1
 90
        0
176
     1
 90
        0
176
     1
 40
0.6
176
     1
 40
30.0
176
     1
 62
     7
420
 16777215
176
     1
 90
        1
176
     1
 90
        4
176
     1
 62
     7
176
     1
 62
   257
176
     1
 90
        1
176
     1
 90
        1
176
     1
 40
1.0
176
     1
 90
        0
176
     1
 62
   257
176
     1
 40
1.0
176
     1
 90
        1
176
     1
 90
        6
176
     1
 90
        2
176
     1
 62
     7
176
     1
 90
        5
176
     1
 90
        0
176
     1
 90
        0
176
     1
290
     0
176
     1
 90
        1
176
     1
 40
0.0
176
     1
 90
        0
176
     1
290
     1
176
     1
290
     1
176
     1
290
     0
176
     1
290
     0
176
     1
290
     0
176
     1
290
     0
176
     1
290
     0
176
     1
290
     0
176
     1
290
     0
176
     1
 90
       50
176
     1
 40
0.0
176
     1
 40
1.0
176
     1
 90
        0
176
     1
 62
    18
176
     1
 90
       50
176
     1
 90
        3
176
     1
 62
     5
420
      255
176
     1
290
     0
176
     1
 90
       50
176
     1
 90
       50
176
     1
 90
       50
176
     1
290
     0
176
     1
 90
       50
176
     1
 62
   256
176
     0
 40
1.0
176
     0
 90
        2
176
     1
  1
strokes_ogs.tif
176
     1
290
     0
176
     1
 40
1.0
176
     1
 40
1.0
176
     1
  0
VISUALSTYLE
  5
4E
102
{ACAD_REACTORS
330
2E
102
}
330
2E
100
AcDbVisualStyle
  2
Realistic
 70
     8
177
     3
291
     0
 70
    58
 90
        2
176
     1
 90
        3
176
     1
 90
        0
176
     1
 90
        2
176
     1
 40
0.6
176
     1
 40
30.0
176
     1
 62
     7
420
 16777215
176
     1
 90
        0
176
     1
 90
        0
176
     1
 62
     7
176
     1
 62
   257
176
     1
 90
        1
176
     1
 90
        1
176
     1
 40
1.0
176
     1
 90
        8
176
     1
 62
   257
176
     1
 40
1.0
176
     1
 90
        1
176
     1
 90
        6
176
     1
 90
        2
176
     1
 62
     7
176
     1
 90
        3
176
     1
 90
        0
176
     1
 90
        0
176
     1
290
     0
176
     1
 90
       13
176
     1
 40
0.0
176
     1
 90
        0
176
     1
290
     0
176
     1
290
     1
176
     1
290
     1
176
     1
290
     0
176
     1
290
     0
176
     1
290
     0
176
     1
290
     0
176
     1
290
     0
176
     1
290
     0
176
     1
 90
       50
176
     1
 40
0.0
176
     1
 40
1.0
176
     1
 90
        0
176
     1
 62
    18
176
     1
 90
       50
176
     1
 90
        3
176
     1
 62
     5
420
      255
176
     1
290
     0
176
     1
 90
       50
176
     1
 90
       50
176
     1
 90
       50
176
     1
290
     0
176
     1
 90
       50
176
     1
 62
   256
176
     0
 40
1.0
176
     0
 90
        2
176
     1
  1
strokes_ogs.tif
176
     1
290
     0
176
     1
 40
1.0
176
     1
 40
1.0
176
     1
  0
VISUALSTYLE
  5
4F
102
{ACAD_REACTORS
330
2E
102
}
330
2E
100
AcDbVisualStyle
  2
Wireframe
 70
     5
177
     3
291
     0
 70
    58
 90
        0
176
     1
 90
        2
176
     1
 90
        0
176
     1
 90
        0
176
     1
 40
0.6
176
     1
 40
30.0
176
     1
 62
     7
420
 16777215
176
     1
 90
        1
176
     1
 90
        4
176
     1
 62
     7
176
     1
 62
   257
176
     1
 90
        1
176
     1
 90
        1
176
     1
 40
1.0
176
     1
 90
        0
176
     1
 62
   257
176
     1
 40
1.0
176
     1
 90
        1
176
     1
 90
        6
176
     1
 90
        2
176
     1
 62
     7
176
     1
 90
        3
176
     1
 90
        0
176
     1
 90
        0
176
     1
290
     0
176
     1
 90
        1
176
     1
 40
0.0
176
     1
 90
        0
176
     1
290
     0
176
     1
290
     1
176
     1
290
     1
176
     1
290
     0
176
     1
290
     0
176
     1
290
     0
176
     1
290
     0
176
     1
290
     0
176
     1
290
     0
176
     1
 90
       50
176
     1
 40
0.0
176
     1
 40
1.0
176
     1
 90
        0
176
     1
 62
    18
176
     1
 90
       50
176
     1
 90
        3
176
     1
 62
     5
420
      255
176
     1
290
     0
176
     1
 90
       50
176
     1
 90
       50
176
     1
 90
       50
176
     1
290
     0
176
     1
 90
       50
176
     1
 62
   256
176
     0
 40
1.0
176
     0
 90
        2
176
     1
  1
strokes_ogs.tif
176
     1
290
     0
176
     1
 40
1.0
176
     1
 40
1.0
176
     1
  0
DICTIONARYVAR
  5
A0
102
{ACAD_REACTORS
330
9A
102
}
330
9A
100
DictionaryVariables
280
     0
  1
1:1
  0
DICTIONARYVAR
  5
9C
102
{ACAD_REACTORS
330
9A
102
}
330
9A
100
DictionaryVariables
280
     0
  1
STANDARD
  0
DICTIONARYVAR
  5
9B
102
{ACAD_REACTORS
330
9A
102
}
330
9A
100
DictionaryVariables
280
     0
  1
STANDARD
  0
DICTIONARYVAR
  5
9D
102
{ACAD_REACTORS
330
9A
102
}
330
9A
100
DictionaryVariables
280
     0
  1

  0
DICTIONARYVAR
  5
9E
102
{ACAD_REACTORS
330
9A
102
}
330
9A
100
DictionaryVariables
280
     0
  1

  0
DICTIONARYVAR
  5
A2
102
{ACAD_REACTORS
330
9A
102
}
330
9A
100
DictionaryVariables
280
     0
  1
1
  0
DICTIONARYVAR
  5
A3
102
{ACAD_REACTORS
330
9A
102
}
330
9A
100
DictionaryVariables
280
     0
  1
15
  0
DICTIONARYVAR
  5
A1
102
{ACAD_REACTORS
330
9A
102
}
330
9A
100
DictionaryVariables
280
     0
  1
0
  0
DICTIONARYVAR
  5
9F
102
{ACAD_REACTORS
330
9A
102
}
330
9A
100
DictionaryVariables
280
     0
  1
0
  0
DICTIONARY
  5
40
330
3F
100
AcDbDictionary
280
     1
281
     1
  3
BUMPTILE
360
41
  3
DIFFUSETILE
360
42
  3
OPACITYTILE
360
43
  3
REFLECTIONTILE
360
44
  3
REFRACTIONTILE
360
45
  3
SPECULARTILE
360
46
  0
DICTIONARY
  5
38
330
37
100
AcDbDictionary
280
     1
281
     1
  3
BUMPTILE
360
39
  3
DIFFUSETILE
360
3A
  3
OPACITYTILE
360
3B
  3
REFLECTIONTILE
360
3C
  3
REFRACTIONTILE
360
3D
  3
SPECULARTILE
360
3E
  0
DICTIONARY
  5
F
330
D
100
AcDbDictionary
280
     1
281
     1
  3
BUMPTILE
360
10
  3
DIFFUSETILE
360
11
  3
OPACITYTILE
360
12
  3
REFLECTIONTILE
360
13
  3
REFRACTIONTILE
360
14
  3
SPECULARTILE
360
15
  0
DICTIONARY
  5
4D
330
4C
100
AcDbDictionary
280
     1
281
     1
  3
ACAD_ROUNDTRIP_2008_TABLESTYLE_CELLSTYLEMAP
360
A4
  0
XRECORD
  5
41
102
{ACAD_REACTORS
330
40
102
}
330
40
100
AcDbXrecord
280
     1
270
     1
271
     1
  0
XRECORD
  5
42
102
{ACAD_REACTORS
330
40
102
}
330
40
100
AcDbXrecord
280
     1
270
     1
271
     1
  0
XRECORD
  5
43
102
{ACAD_REACTORS
330
40
102
}
330
40
100
AcDbXrecord
280
     1
270
     1
271
     1
  0
XRECORD
  5
44
102
{ACAD_REACTORS
330
40
102
}
330
40
100
AcDbXrecord
280
     1
270
     1
271
     1
  0
XRECORD
  5
45
102
{ACAD_REACTORS
330
40
102
}
330
40
100
AcDbXrecord
280
     1
270
     1
271
     1
  0
XRECORD
  5
46
102
{ACAD_REACTORS
330
40
102
}
330
40
100
AcDbXrecord
280
     1
270
     1
271
     1
  0
XRECORD
  5
39
102
{ACAD_REACTORS
330
38
102
}
330
38
100
AcDbXrecord
280
     1
270
     1
271
     1
  0
XRECORD
  5
3A
102
{ACAD_REACTORS
330
38
102
}
330
38
100
AcDbXrecord
280
     1
270
     1
271
     1
  0
XRECORD
  5
3B
102
{ACAD_REACTORS
330
38
102
}
330
38
100
AcDbXrecord
280
     1
270
     1
271
     1
  0
XRECORD
  5
3C
102
{ACAD_REACTORS
330
38
102
}
330
38
100
AcDbXrecord
280
     1
270
     1
271
     1
  0
XRECORD
  5
3D
102
{ACAD_REACTORS
330
38
102
}
330
38
100
AcDbXrecord
280
     1
270
     1
271
     1
  0
XRECORD
  5
3E
102
{ACAD_REACTORS
330
38
102
}
330
38
100
AcDbXrecord
280
     1
270
     1
271
     1
  0
XRECORD
  5
10
102
{ACAD_REACTORS
330
F
102
}
330
F
100
AcDbXrecord
280
     1
270
     1
271
     1
  0
XRECORD
  5
11
102
{ACAD_REACTORS
330
F
102
}
330
F
100
AcDbXrecord
280
     1
270
     1
271
     1
  0
XRECORD
  5
12
102
{ACAD_REACTORS
330
F
102
}
330
F
100
AcDbXrecord
280
     1
270
     1
271
     1
  0
XRECORD
  5
13
102
{ACAD_REACTORS
330
F
102
}
330
F
100
AcDbXrecord
280
     1
270
     1
271
     1
  0
XRECORD
  5
14
102
{ACAD_REACTORS
330
F
102
}
330
F
100
AcDbXrecord
280
     1
270
     1
271
     1
  0
XRECORD
  5
15
102
{ACAD_REACTORS
330
F
102
}
330
F
100
AcDbXrecord
280
     1
270
     1
271
     1
  0
CELLSTYLEMAP
  5
A4
102
{ACAD_REACTORS
330
4D
102
}
330
4D
100
AcDbCellStyleMap
 90
        3
300
CELLSTYLE
  1
TABLEFORMAT_BEGIN
 90
        5
170
     1
 91
        0
 92
    32768
 62
   257
 93
        1
300
CONTENTFORMAT
  1
CONTENTFORMAT_BEGIN
 90
        0
 91
        0
 92
      512
 93
        0
300

 40
0.0
140
1.0
 94
        5
 62
     0
340
24
144
0.25
309
CONTENTFORMAT_END
171
     1
301
MARGIN
  1
CELLMARGIN_BEGIN
 40
0.06
 40
0.06
 40
0.06
 40
0.06
 40
0.18
 40
0.18
309
CELLMARGIN_END
 94
        6
 95
        1
302
GRIDFORMAT
  1
GRIDFORMAT_BEGIN
 90
        0
 91
        1
 62
     0
 92
       -2
340
0
 93
        0
 40
0.045
309
GRIDFORMAT_END
 95
        2
302
GRIDFORMAT
  1
GRIDFORMAT_BEGIN
 90
        0
 91
        1
 62
     0
 92
       -2
340
0
 93
        0
 40
0.045
309
GRIDFORMAT_END
 95
        4
302
GRIDFORMAT
  1
GRIDFORMAT_BEGIN
 90
        0
 91
        1
 62
     0
 92
       -2
340
0
 93
        0
 40
0.045
309
GRIDFORMAT_END
 95
        8
302
GRIDFORMAT
  1
GRIDFORMAT_BEGIN
 90
        0
 91
        1
 62
     0
 92
       -2
340
0
 93
        0
 40
0.045
309
GRIDFORMAT_END
 95
       16
302
GRIDFORMAT
  1
GRIDFORMAT_BEGIN
 90
        0
 91
        1
 62
     0
 92
       -2
340
0
 93
        0
 40
0.045
309
GRIDFORMAT_END
 95
       32
302
GRIDFORMAT
  1
GRIDFORMAT_BEGIN
 90
        0
 91
        1
 62
     0
 92
       -2
340
0
 93
        0
 40
0.045
309
GRIDFORMAT_END
309
TABLEFORMAT_END
  1
CELLSTYLE_BEGIN
 90
        1
 91
        1
300
_TITLE
309
CELLSTYLE_END
300
CELLSTYLE
  1
TABLEFORMAT_BEGIN
 90
        5
170
     1
 91
        0
 92
        0
 62
   257
 93
        1
300
CONTENTFORMAT
  1
CONTENTFORMAT_BEGIN
 90
        0
 91
        0
 92
      512
 93
        0
300

 40
0.0
140
1.0
 94
        5
 62
     0
340
24
144
0.18
309
CONTENTFORMAT_END
171
     1
301
MARGIN
  1
CELLMARGIN_BEGIN
 40
0.06
 40
0.06
 40
0.06
 40
0.06
 40
0.18
 40
0.18
309
CELLMARGIN_END
 94
        6
 95
        1
302
GRIDFORMAT
  1
GRIDFORMAT_BEGIN
 90
        0
 91
        1
 62
     0
 92
       -2
340
0
 93
        0
 40
0.045
309
GRIDFORMAT_END
 95
        2
302
GRIDFORMAT
  1
GRIDFORMAT_BEGIN
 90
        0
 91
        1
 62
     0
 92
       -2
340
0
 93
        0
 40
0.045
309
GRIDFORMAT_END
 95
        4
302
GRIDFORMAT
  1
GRIDFORMAT_BEGIN
 90
        0
 91
        1
 62
     0
 92
       -2
340
0
 93
        0
 40
0.045
309
GRIDFORMAT_END
 95
        8
302
GRIDFORMAT
  1
GRIDFORMAT_BEGIN
 90
        0
 91
        1
 62
     0
 92
       -2
340
0
 93
        0
 40
0.045
309
GRIDFORMAT_END
 95
       16
302
GRIDFORMAT
  1
GRIDFORMAT_BEGIN
 90
        0
 91
        1
 62
     0
 92
       -2
340
0
 93
        0
 40
0.045
309
GRIDFORMAT_END
 95
       32
302
GRIDFORMAT
  1
GRIDFORMAT_BEGIN
 90
        0
 91
        1
 62
     0
 92
       -2
340
0
 93
        0
 40
0.045
309
GRIDFORMAT_END
309
TABLEFORMAT_END
  1
CELLSTYLE_BEGIN
 90
        2
 91
        1
300
_HEADER
309
CELLSTYLE_END
300
CELLSTYLE
  1
TABLEFORMAT_BEGIN
 90
        5
170
     1
 91
        0
 92
        0
 62
   257
 93
        1
300
CONTENTFORMAT
  1
CONTENTFORMAT_BEGIN
 90
        0
 91
        0
 92
      512
 93
        0
300

 40
0.0
140
1.0
 94
        2
 62
     0
340
24
144
0.18
309
CONTENTFORMAT_END
171
     1
301
MARGIN
  1
CELLMARGIN_BEGIN
 40
0.06
 40
0.06
 40
0.06
 40
0.06
 40
0.18
 40
0.18
309
CELLMARGIN_END
 94
        6
 95
        1
302
GRIDFORMAT
  1
GRIDFORMAT_BEGIN
 90
        0
 91
        1
 62
     0
 92
       -2
340
0
 93
        0
 40
0.045
309
GRIDFORMAT_END
 95
        2
302
GRIDFORMAT
  1
GRIDFORMAT_BEGIN
 90
        0
 91
        1
 62
     0
 92
       -2
340
0
 93
        0
 40
0.045
309
GRIDFORMAT_END
 95
        4
302
GRIDFORMAT
  1
GRIDFORMAT_BEGIN
 90
        0
 91
        1
 62
     0
 92
       -2
340
0
 93
        0
 40
0.045
309
GRIDFORMAT_END
 95
        8
302
GRIDFORMAT
  1
GRIDFORMAT_BEGIN
 90
        0
 91
        1
 62
     0
 92
       -2
340
0
 93
        0
 40
0.045
309
GRIDFORMAT_END
 95
       16
302
GRIDFORMAT
  1
GRIDFORMAT_BEGIN
 90
        0
 91
        1
 62
     0
 92
       -2
340
0
 93
        0
 40
0.045
309
GRIDFORMAT_END
 95
       32
302
GRIDFORMAT
  1
GRIDFORMAT_BEGIN
 90
        0
 91
        1
 62
     0
 92
       -2
340
0
 93
        0
 40
0.045
309
GRIDFORMAT_END
309
TABLEFORMAT_END
  1
CELLSTYLE_BEGIN
 90
        3
 91
        2
300
_DATA
309
CELLSTYLE_END
  0
ENDSEC
  0
SECTION
  2
ACDSDATA
 70
     2
 71
     8
  0
ACDSSCHEMA
 90
        0
  1
AcDb_Thumbnail_Schema
  2
AcDbDs::ID
280
    10
 91
        8
  2
Thumbnail_Data
280
    15
 91
        0
101
ACDSRECORD
 95
        0
 90
        1
  2
AcDbDs::TreatedAsObjectData
280
     1
291
     1
101
ACDSRECORD
 95
        0
 90
        2
  2
AcDbDs::Legacy
280
     1
291
     1
101
ACDSRECORD
  1
AcDbDs::ID
 90
        3
  2
AcDs:Indexable
280
     1
291
     1
101
ACDSRECORD
  1
AcDbDs::ID
 90
        4
  2
AcDbDs::HandleAttribute
280
     7
282
     1
  0
ACDSSCHEMA
 90
        1
  1
AcDbDs::TreatedAsObjectDataSchema
  2
AcDbDs::TreatedAsObjectData
280
     1
 91
        0
  0
ACDSSCHEMA
 90
        2
  1
AcDbDs::LegacySchema
  2
AcDbDs::Legacy
280
     1
 91
        0
  0
ACDSSCHEMA
 90
        3
  1
AcDbDs::IndexedPropertySchema
  2
AcDs:Indexable
280
     1
 91
        0
  0
ACDSSCHEMA
 90
        4
  1
AcDbDs::HandleAttributeSchema
  2
AcDbDs::HandleAttribute
280
     7
 91
        1
284
     1
  0
ACDSRECORD
 90
        0
  2
AcDbDs::ID
280
    10
320
18
  2
Thumbnail_Data
280
    15
 94
     1597
310
89504E470D0A1A0A0000000D49484452000001000000005408030000005AC4190100000300504C5445212830FFFFFF2128300000000000000000000000000000000000000000000000000000330000660000990000CC0000FF0033000033330033660033990033CC0033FF0066000066330066660066990066CC0066FF0099
310
000099330099660099990099CC0099FF00CC0000CC3300CC6600CC9900CCCC00CCFF00FF0000FF3300FF6600FF9900FFCC00FFFF3300003300333300663300993300CC3300FF3333003333333333663333993333CC3333FF3366003366333366663366993366CC3366FF3399003399333399663399993399CC3399FF33CC00
310
33CC3333CC6633CC9933CCCC33CCFF33FF0033FF3333FF6633FF9933FFCC33FFFF6600006600336600666600996600CC6600FF6633006633336633666633996633CC6633FF6666006666336666666666996666CC6666FF6699006699336699666699996699CC6699FF66CC0066CC3366CC6666CC9966CCCC66CCFF66FF0066
310
FF3366FF6666FF9966FFCC66FFFF9900009900339900669900999900CC9900FF9933009933339933669933999933CC9933FF9966009966339966669966999966CC9966FF9999009999339999669999999999CC9999FF99CC0099CC3399CC6699CC9999CCCC99CCFF99FF0099FF3399FF6699FF9999FFCC99FFFFCC0000CC00
310
33CC0066CC0099CC00CCCC00FFCC3300CC3333CC3366CC3399CC33CCCC33FFCC6600CC6633CC6666CC6699CC66CCCC66FFCC9900CC9933CC9966CC9999CC99CCCC99FFCCCC00CCCC33CCCC66CCCC99CCCCCCCCCCFFCCFF00CCFF33CCFF66CCFF99CCFFCCCCFFFFFF0000FF0033FF0066FF0099FF00CCFF00FFFF3300FF3333
310
FF3366FF3399FF33CCFF33FFFF6600FF6633FF6666FF6699FF66CCFF66FFFF9900FF9933FF9966FF9999FF99CCFF99FFFFCC00FFCC33FFCC66FFCC99FFCCCCFFCCFFFFFF00FFFF33FFFF66FFFF99FFFFCCFFFFFF0000000D0D0D1A1A1A2828283535354343435050505D5D5D6B6B6B787878868686939393A1A1A1AEAEAEBB
310
BBBBC9C9C9D6D6D6E4E4E4F1F1F1FFFFFF0000000000000000000000000000000000000000000000000000000000002E4550F1000000AD4944415478DAEDDAD11183201040C1EBBFA8ABCD2131E9C0F1E3EDEB801550D11949922449922449D2FBEDE6054C81F0D0CFE0CB008700401EA0BC0BDA04007C060F60010088EF01
310
DB06E84E81BDAF7D1A60010008038CFB200000537E1DFA9D07A5DF07C71A00103F140200C0B120000000006401A6FD81F47F26620D000000A02C9007B00600A41F85EC820000940106401BE0FBAB501B600100701F4C030C009B0000001E05DB53E069800BC82DE90D40F472AA0000000049454E44AE4260822AD0E18C852D
310
07C008749758910C8DAB897B5492BD11644154222016448F3EB981081407DCF3421E075204DD266721B089206705B464B88B20C380711C4811548F90560E6CBEB032212E156CD5C05D14DEDD52B02D9AF7CF5241774732130ED3E2404B7EEE0D4429306CA006726F6226C22103559022F07DFFA8D1F9BE44D89312936470EE
310
9186085824A8EE48348913018356484E11B42100CD0DCF75F28500D015C5A888B8482A7D4301A02F748E09242A029301C45399C0CC9FBF95431FDA261057F4ABAF5E698C7FA815D10010D3820EDE9BF8C8E8887D3C0AF80100AA475414D8EEDDB8A1D9DAA8245220F87F888001403FAA714D8D0C63406FD3A70E7814A84D6A
310
17017014A82725EE504003A05F54840656B7089206EA5D554B800780FBD3BD58FEB0066FAF03770D642430A710AA255AF7FDFB53BFE8BD36382F7D5301A910D6F6C20ED90A38B5C00360E5012400FDB6B2EB621C023AC39FA18F29DA0B114550D1D04252C07B4188D44097C232CB089CCE8FAC01B709F83B33FC05BA69576C
310
3171BA890000000049454E44AE426082EFE2DB437E17C884CF35170FA07B011D15E42E394C009A13403DFE7556CADACCB8840AC275FC813FA21E9F55680F71F3FDC7004C07C06DFC711EF4C7A7DE2EF7F0948F03F0BE3430850B3C5F20FDE0C01B55D037FFE0D90E61F482AFB4422E7E7826112800A0AD7A78F24721005E69
310
861F871F79413736FEB6DA78F13DFC25FF8D4E20680FF15A155CF58D4700BA177C1F00E893307E22865B116002F03F54F007BA8B157BE62E96250000000049454E44AE426082426082
  0
ENDSEC
  0
EOF
